<?xml version="1.0" encoding="utf-8" standalone="no"?>
<!DOCTYPE svg PUBLIC "-//W3C//DTD SVG 1.1//EN"
  "http://www.w3.org/Graphics/SVG/1.1/DTD/svg11.dtd">
<svg xmlns:xlink="http://www.w3.org/1999/xlink" width="670.724844pt" height="607.670687pt" viewBox="0 0 670.724844 607.670687" xmlns="http://www.w3.org/2000/svg" version="1.1">
 <metadata>
  <rdf:RDF xmlns:dc="http://purl.org/dc/elements/1.1/" xmlns:cc="http://creativecommons.org/ns#" xmlns:rdf="http://www.w3.org/1999/02/22-rdf-syntax-ns#">
   <cc:Work>
    <dc:type rdf:resource="http://purl.org/dc/dcmitype/StillImage"/>
    <dc:date>2026-08-21T15:22:59.148875</dc:date>
    <dc:format>image/svg+xml</dc:format>
    <dc:creator>
     <cc:Agent>
      <dc:title>Matplotlib v3.10.1, https://matplotlib.org/</dc:title>
     </cc:Agent>
    </dc:creator>
   </cc:Work>
  </rdf:RDF>
 </metadata>
 <defs>
  <style type="text/css">*{stroke-linejoin: round; stroke-linecap: butt}</style>
 </defs>
 <g id="figure_1">
  <g id="patch_1">
   <path d="M -0 607.670687 
L 670.724844 607.670687 
L 670.724844 0 
L -0 0 
z
" style="fill: #ffffff"/>
  </g>
  <g id="axes_1">
   <g id="patch_2">
    <path d="M 72.044844 418.949942 
L 635.077613 418.949942 
L 635.077613 36.396875 
L 72.044844 36.396875 
z
" style="fill: #ffffff"/>
   </g>
   <g id="QuadMesh_1">
    <path d="M 82.872397 404.781309 
L 118.964241 404.781309 
L 118.964241 381.166923 
L 82.872397 381.166923 
L 82.872397 404.781309 
" clip-path="url(#pbea094c948)" style="fill: #ffffff"/>
    <path d="M 118.964241 404.781309 
L 155.056085 404.781309 
L 155.056085 381.166923 
L 118.964241 381.166923 
L 118.964241 404.781309 
" clip-path="url(#pbea094c948)" style="fill: #ffffff"/>
    <path d="M 155.056085 404.781309 
L 191.14793 404.781309 
L 191.14793 381.166923 
L 155.056085 381.166923 
L 155.056085 404.781309 
" clip-path="url(#pbea094c948)" style="fill: #ffffff"/>
    <path d="M 191.14793 404.781309 
L 227.239774 404.781309 
L 227.239774 381.166923 
L 191.14793 381.166923 
L 191.14793 404.781309 
" clip-path="url(#pbea094c948)" style="fill: #ffffff"/>
    <path d="M 227.239774 404.781309 
L 263.331618 404.781309 
L 263.331618 381.166923 
L 227.239774 381.166923 
L 227.239774 404.781309 
" clip-path="url(#pbea094c948)" style="fill: #ffffff"/>
    <path d="M 263.331618 404.781309 
L 299.423462 404.781309 
L 299.423462 381.166923 
L 263.331618 381.166923 
L 263.331618 404.781309 
" clip-path="url(#pbea094c948)" style="fill: #ffffff"/>
    <path d="M 299.423462 404.781309 
L 335.515306 404.781309 
L 335.515306 381.166923 
L 299.423462 381.166923 
L 299.423462 404.781309 
" clip-path="url(#pbea094c948)" style="fill: #ffffff"/>
    <path d="M 335.515306 404.781309 
L 371.607151 404.781309 
L 371.607151 381.166923 
L 335.515306 381.166923 
L 335.515306 404.781309 
" clip-path="url(#pbea094c948)" style="fill: #ffffff"/>
    <path d="M 371.607151 404.781309 
L 407.698995 404.781309 
L 407.698995 381.166923 
L 371.607151 381.166923 
L 371.607151 404.781309 
" clip-path="url(#pbea094c948)" style="fill: #ffffff"/>
    <path d="M 407.698995 404.781309 
L 443.790839 404.781309 
L 443.790839 381.166923 
L 407.698995 381.166923 
L 407.698995 404.781309 
" clip-path="url(#pbea094c948)" style="fill: #ffffff"/>
    <path d="M 443.790839 404.781309 
L 479.882683 404.781309 
L 479.882683 381.166923 
L 443.790839 381.166923 
L 443.790839 404.781309 
" clip-path="url(#pbea094c948)" style="fill: #ffffff"/>
    <path d="M 479.882683 404.781309 
L 515.974527 404.781309 
L 515.974527 381.166923 
L 479.882683 381.166923 
L 479.882683 404.781309 
" clip-path="url(#pbea094c948)" style="fill: #ffffff"/>
    <path d="M 515.974527 404.781309 
L 552.066371 404.781309 
L 552.066371 381.166923 
L 515.974527 381.166923 
L 515.974527 404.781309 
" clip-path="url(#pbea094c948)" style="fill: #ffffff"/>
    <path d="M 552.066371 404.781309 
L 588.158216 404.781309 
L 588.158216 381.166923 
L 552.066371 381.166923 
L 552.066371 404.781309 
" clip-path="url(#pbea094c948)" style="fill: #ffffff"/>
    <path d="M 588.158216 404.781309 
L 624.25006 404.781309 
L 624.25006 381.166923 
L 588.158216 381.166923 
L 588.158216 404.781309 
" clip-path="url(#pbea094c948)" style="fill: #ffffff"/>
    <path d="M 82.872397 381.166923 
L 118.964241 381.166923 
L 118.964241 357.552536 
L 82.872397 357.552536 
L 82.872397 381.166923 
" clip-path="url(#pbea094c948)" style="fill: #ffffff"/>
    <path d="M 118.964241 381.166923 
L 155.056085 381.166923 
L 155.056085 357.552536 
L 118.964241 357.552536 
L 118.964241 381.166923 
" clip-path="url(#pbea094c948)" style="fill: #ffffff"/>
    <path d="M 155.056085 381.166923 
L 191.14793 381.166923 
L 191.14793 357.552536 
L 155.056085 357.552536 
L 155.056085 381.166923 
" clip-path="url(#pbea094c948)" style="fill: #ffffff"/>
    <path d="M 191.14793 381.166923 
L 227.239774 381.166923 
L 227.239774 357.552536 
L 191.14793 357.552536 
L 191.14793 381.166923 
" clip-path="url(#pbea094c948)" style="fill: #ffffff"/>
    <path d="M 227.239774 381.166923 
L 263.331618 381.166923 
L 263.331618 357.552536 
L 227.239774 357.552536 
L 227.239774 381.166923 
" clip-path="url(#pbea094c948)" style="fill: #ffffff"/>
    <path d="M 263.331618 381.166923 
L 299.423462 381.166923 
L 299.423462 357.552536 
L 263.331618 357.552536 
L 263.331618 381.166923 
" clip-path="url(#pbea094c948)" style="fill: #ffffff"/>
    <path d="M 299.423462 381.166923 
L 335.515306 381.166923 
L 335.515306 357.552536 
L 299.423462 357.552536 
L 299.423462 381.166923 
" clip-path="url(#pbea094c948)" style="fill: #ffffff"/>
    <path d="M 335.515306 381.166923 
L 371.607151 381.166923 
L 371.607151 357.552536 
L 335.515306 357.552536 
L 335.515306 381.166923 
" clip-path="url(#pbea094c948)" style="fill: #ffffff"/>
    <path d="M 371.607151 381.166923 
L 407.698995 381.166923 
L 407.698995 357.552536 
L 371.607151 357.552536 
L 371.607151 381.166923 
" clip-path="url(#pbea094c948)" style="fill: #ffffff"/>
    <path d="M 407.698995 381.166923 
L 443.790839 381.166923 
L 443.790839 357.552536 
L 407.698995 357.552536 
L 407.698995 381.166923 
" clip-path="url(#pbea094c948)" style="fill: #ffffff"/>
    <path d="M 443.790839 381.166923 
L 479.882683 381.166923 
L 479.882683 357.552536 
L 443.790839 357.552536 
L 443.790839 381.166923 
" clip-path="url(#pbea094c948)" style="fill: #ffffff"/>
    <path d="M 479.882683 381.166923 
L 515.974527 381.166923 
L 515.974527 357.552536 
L 479.882683 357.552536 
L 479.882683 381.166923 
" clip-path="url(#pbea094c948)" style="fill: #ffffff"/>
    <path d="M 515.974527 381.166923 
L 552.066371 381.166923 
L 552.066371 357.552536 
L 515.974527 357.552536 
L 515.974527 381.166923 
" clip-path="url(#pbea094c948)" style="fill: #ffffff"/>
    <path d="M 552.066371 381.166923 
L 588.158216 381.166923 
L 588.158216 357.552536 
L 552.066371 357.552536 
L 552.066371 381.166923 
" clip-path="url(#pbea094c948)" style="fill: #ffffff"/>
    <path d="M 588.158216 381.166923 
L 624.25006 381.166923 
L 624.25006 357.552536 
L 588.158216 357.552536 
L 588.158216 381.166923 
" clip-path="url(#pbea094c948)" style="fill: #ffffff"/>
    <path d="M 82.872397 357.552536 
L 118.964241 357.552536 
L 118.964241 333.938149 
L 82.872397 333.938149 
L 82.872397 357.552536 
" clip-path="url(#pbea094c948)" style="fill: #ffffff"/>
    <path d="M 118.964241 357.552536 
L 155.056085 357.552536 
L 155.056085 333.938149 
L 118.964241 333.938149 
L 118.964241 357.552536 
" clip-path="url(#pbea094c948)" style="fill: #ffffff"/>
    <path d="M 155.056085 357.552536 
L 191.14793 357.552536 
L 191.14793 333.938149 
L 155.056085 333.938149 
L 155.056085 357.552536 
" clip-path="url(#pbea094c948)" style="fill: #ffffff"/>
    <path d="M 191.14793 357.552536 
L 227.239774 357.552536 
L 227.239774 333.938149 
L 191.14793 333.938149 
L 191.14793 357.552536 
" clip-path="url(#pbea094c948)" style="fill: #ffffff"/>
    <path d="M 227.239774 357.552536 
L 263.331618 357.552536 
L 263.331618 333.938149 
L 227.239774 333.938149 
L 227.239774 357.552536 
" clip-path="url(#pbea094c948)" style="fill: #ffffff"/>
    <path d="M 263.331618 357.552536 
L 299.423462 357.552536 
L 299.423462 333.938149 
L 263.331618 333.938149 
L 263.331618 357.552536 
" clip-path="url(#pbea094c948)" style="fill: #ffffff"/>
    <path d="M 299.423462 357.552536 
L 335.515306 357.552536 
L 335.515306 333.938149 
L 299.423462 333.938149 
L 299.423462 357.552536 
" clip-path="url(#pbea094c948)" style="fill: #ffffff"/>
    <path d="M 335.515306 357.552536 
L 371.607151 357.552536 
L 371.607151 333.938149 
L 335.515306 333.938149 
L 335.515306 357.552536 
" clip-path="url(#pbea094c948)" style="fill: #ffffff"/>
    <path d="M 371.607151 357.552536 
L 407.698995 357.552536 
L 407.698995 333.938149 
L 371.607151 333.938149 
L 371.607151 357.552536 
" clip-path="url(#pbea094c948)" style="fill: #ffffff"/>
    <path d="M 407.698995 357.552536 
L 443.790839 357.552536 
L 443.790839 333.938149 
L 407.698995 333.938149 
L 407.698995 357.552536 
" clip-path="url(#pbea094c948)" style="fill: #ffffff"/>
    <path d="M 443.790839 357.552536 
L 479.882683 357.552536 
L 479.882683 333.938149 
L 443.790839 333.938149 
L 443.790839 357.552536 
" clip-path="url(#pbea094c948)" style="fill: #ffffff"/>
    <path d="M 479.882683 357.552536 
L 515.974527 357.552536 
L 515.974527 333.938149 
L 479.882683 333.938149 
L 479.882683 357.552536 
" clip-path="url(#pbea094c948)" style="fill: #ffffff"/>
    <path d="M 515.974527 357.552536 
L 552.066371 357.552536 
L 552.066371 333.938149 
L 515.974527 333.938149 
L 515.974527 357.552536 
" clip-path="url(#pbea094c948)" style="fill: #ffffff"/>
    <path d="M 552.066371 357.552536 
L 588.158216 357.552536 
L 588.158216 333.938149 
L 552.066371 333.938149 
L 552.066371 357.552536 
" clip-path="url(#pbea094c948)" style="fill: #ffffff"/>
    <path d="M 588.158216 357.552536 
L 624.25006 357.552536 
L 624.25006 333.938149 
L 588.158216 333.938149 
L 588.158216 357.552536 
" clip-path="url(#pbea094c948)" style="fill: #ffffff"/>
    <path d="M 82.872397 333.938149 
L 118.964241 333.938149 
L 118.964241 310.323762 
L 82.872397 310.323762 
L 82.872397 333.938149 
" clip-path="url(#pbea094c948)" style="fill: #ffffff"/>
    <path d="M 118.964241 333.938149 
L 155.056085 333.938149 
L 155.056085 310.323762 
L 118.964241 310.323762 
L 118.964241 333.938149 
" clip-path="url(#pbea094c948)" style="fill: #ffffff"/>
    <path d="M 155.056085 333.938149 
L 191.14793 333.938149 
L 191.14793 310.323762 
L 155.056085 310.323762 
L 155.056085 333.938149 
" clip-path="url(#pbea094c948)" style="fill: #ffffff"/>
    <path d="M 191.14793 333.938149 
L 227.239774 333.938149 
L 227.239774 310.323762 
L 191.14793 310.323762 
L 191.14793 333.938149 
" clip-path="url(#pbea094c948)" style="fill: #ffffff"/>
    <path d="M 227.239774 333.938149 
L 263.331618 333.938149 
L 263.331618 310.323762 
L 227.239774 310.323762 
L 227.239774 333.938149 
" clip-path="url(#pbea094c948)" style="fill: #ffffff"/>
    <path d="M 263.331618 333.938149 
L 299.423462 333.938149 
L 299.423462 310.323762 
L 263.331618 310.323762 
L 263.331618 333.938149 
" clip-path="url(#pbea094c948)" style="fill: #ffffff"/>
    <path d="M 299.423462 333.938149 
L 335.515306 333.938149 
L 335.515306 310.323762 
L 299.423462 310.323762 
L 299.423462 333.938149 
" clip-path="url(#pbea094c948)" style="fill: #ffffff"/>
    <path d="M 335.515306 333.938149 
L 371.607151 333.938149 
L 371.607151 310.323762 
L 335.515306 310.323762 
L 335.515306 333.938149 
" clip-path="url(#pbea094c948)" style="fill: #ffffff"/>
    <path d="M 371.607151 333.938149 
L 407.698995 333.938149 
L 407.698995 310.323762 
L 371.607151 310.323762 
L 371.607151 333.938149 
" clip-path="url(#pbea094c948)" style="fill: #ffffff"/>
    <path d="M 407.698995 333.938149 
L 443.790839 333.938149 
L 443.790839 310.323762 
L 407.698995 310.323762 
L 407.698995 333.938149 
" clip-path="url(#pbea094c948)" style="fill: #ffffff"/>
    <path d="M 443.790839 333.938149 
L 479.882683 333.938149 
L 479.882683 310.323762 
L 443.790839 310.323762 
L 443.790839 333.938149 
" clip-path="url(#pbea094c948)" style="fill: #ffffff"/>
    <path d="M 479.882683 333.938149 
L 515.974527 333.938149 
L 515.974527 310.323762 
L 479.882683 310.323762 
L 479.882683 333.938149 
" clip-path="url(#pbea094c948)" style="fill: #ffffff"/>
    <path d="M 515.974527 333.938149 
L 552.066371 333.938149 
L 552.066371 310.323762 
L 515.974527 310.323762 
L 515.974527 333.938149 
" clip-path="url(#pbea094c948)" style="fill: #ffffff"/>
    <path d="M 552.066371 333.938149 
L 588.158216 333.938149 
L 588.158216 310.323762 
L 552.066371 310.323762 
L 552.066371 333.938149 
" clip-path="url(#pbea094c948)" style="fill: #ffffff"/>
    <path d="M 588.158216 333.938149 
L 624.25006 333.938149 
L 624.25006 310.323762 
L 588.158216 310.323762 
L 588.158216 333.938149 
" clip-path="url(#pbea094c948)" style="fill: #ffffff"/>
    <path d="M 82.872397 310.323762 
L 118.964241 310.323762 
L 118.964241 286.709375 
L 82.872397 286.709375 
L 82.872397 310.323762 
" clip-path="url(#pbea094c948)" style="fill: #ffffff"/>
    <path d="M 118.964241 310.323762 
L 155.056085 310.323762 
L 155.056085 286.709375 
L 118.964241 286.709375 
L 118.964241 310.323762 
" clip-path="url(#pbea094c948)" style="fill: #ffffff"/>
    <path d="M 155.056085 310.323762 
L 191.14793 310.323762 
L 191.14793 286.709375 
L 155.056085 286.709375 
L 155.056085 310.323762 
" clip-path="url(#pbea094c948)" style="fill: #ffffff"/>
    <path d="M 191.14793 310.323762 
L 227.239774 310.323762 
L 227.239774 286.709375 
L 191.14793 286.709375 
L 191.14793 310.323762 
" clip-path="url(#pbea094c948)" style="fill: #ffffff"/>
    <path d="M 227.239774 310.323762 
L 263.331618 310.323762 
L 263.331618 286.709375 
L 227.239774 286.709375 
L 227.239774 310.323762 
" clip-path="url(#pbea094c948)" style="fill: #ffffff"/>
    <path d="M 263.331618 310.323762 
L 299.423462 310.323762 
L 299.423462 286.709375 
L 263.331618 286.709375 
L 263.331618 310.323762 
" clip-path="url(#pbea094c948)" style="fill: #ffffff"/>
    <path d="M 299.423462 310.323762 
L 335.515306 310.323762 
L 335.515306 286.709375 
L 299.423462 286.709375 
L 299.423462 310.323762 
" clip-path="url(#pbea094c948)" style="fill: #ffffff"/>
    <path d="M 335.515306 310.323762 
L 371.607151 310.323762 
L 371.607151 286.709375 
L 335.515306 286.709375 
L 335.515306 310.323762 
" clip-path="url(#pbea094c948)" style="fill: #ffffff"/>
    <path d="M 371.607151 310.323762 
L 407.698995 310.323762 
L 407.698995 286.709375 
L 371.607151 286.709375 
L 371.607151 310.323762 
" clip-path="url(#pbea094c948)" style="fill: #ffffff"/>
    <path d="M 407.698995 310.323762 
L 443.790839 310.323762 
L 443.790839 286.709375 
L 407.698995 286.709375 
L 407.698995 310.323762 
" clip-path="url(#pbea094c948)" style="fill: #ffffff"/>
    <path d="M 443.790839 310.323762 
L 479.882683 310.323762 
L 479.882683 286.709375 
L 443.790839 286.709375 
L 443.790839 310.323762 
" clip-path="url(#pbea094c948)" style="fill: #ffffff"/>
    <path d="M 479.882683 310.323762 
L 515.974527 310.323762 
L 515.974527 286.709375 
L 479.882683 286.709375 
L 479.882683 310.323762 
" clip-path="url(#pbea094c948)" style="fill: #ffffff"/>
    <path d="M 515.974527 310.323762 
L 552.066371 310.323762 
L 552.066371 286.709375 
L 515.974527 286.709375 
L 515.974527 310.323762 
" clip-path="url(#pbea094c948)" style="fill: #ffffff"/>
    <path d="M 552.066371 310.323762 
L 588.158216 310.323762 
L 588.158216 286.709375 
L 552.066371 286.709375 
L 552.066371 310.323762 
" clip-path="url(#pbea094c948)" style="fill: #ffffff"/>
    <path d="M 588.158216 310.323762 
L 624.25006 310.323762 
L 624.25006 286.709375 
L 588.158216 286.709375 
L 588.158216 310.323762 
" clip-path="url(#pbea094c948)" style="fill: #ffffff"/>
    <path d="M 82.872397 286.709375 
L 118.964241 286.709375 
L 118.964241 263.094989 
L 82.872397 263.094989 
L 82.872397 286.709375 
" clip-path="url(#pbea094c948)" style="fill: #ffffff"/>
    <path d="M 118.964241 286.709375 
L 155.056085 286.709375 
L 155.056085 263.094989 
L 118.964241 263.094989 
L 118.964241 286.709375 
" clip-path="url(#pbea094c948)" style="fill: #ffffff"/>
    <path d="M 155.056085 286.709375 
L 191.14793 286.709375 
L 191.14793 263.094989 
L 155.056085 263.094989 
L 155.056085 286.709375 
" clip-path="url(#pbea094c948)" style="fill: #ffffff"/>
    <path d="M 191.14793 286.709375 
L 227.239774 286.709375 
L 227.239774 263.094989 
L 191.14793 263.094989 
L 191.14793 286.709375 
" clip-path="url(#pbea094c948)" style="fill: #ffffff"/>
    <path d="M 227.239774 286.709375 
L 263.331618 286.709375 
L 263.331618 263.094989 
L 227.239774 263.094989 
L 227.239774 286.709375 
" clip-path="url(#pbea094c948)" style="fill: #ffffff"/>
    <path d="M 263.331618 286.709375 
L 299.423462 286.709375 
L 299.423462 263.094989 
L 263.331618 263.094989 
L 263.331618 286.709375 
" clip-path="url(#pbea094c948)" style="fill: #ffffff"/>
    <path d="M 299.423462 286.709375 
L 335.515306 286.709375 
L 335.515306 263.094989 
L 299.423462 263.094989 
L 299.423462 286.709375 
" clip-path="url(#pbea094c948)" style="fill: #ffffff"/>
    <path d="M 335.515306 286.709375 
L 371.607151 286.709375 
L 371.607151 263.094989 
L 335.515306 263.094989 
L 335.515306 286.709375 
" clip-path="url(#pbea094c948)" style="fill: #ffffff"/>
    <path d="M 371.607151 286.709375 
L 407.698995 286.709375 
L 407.698995 263.094989 
L 371.607151 263.094989 
L 371.607151 286.709375 
" clip-path="url(#pbea094c948)" style="fill: #ffffff"/>
    <path d="M 407.698995 286.709375 
L 443.790839 286.709375 
L 443.790839 263.094989 
L 407.698995 263.094989 
L 407.698995 286.709375 
" clip-path="url(#pbea094c948)" style="fill: #ffffff"/>
    <path d="M 443.790839 286.709375 
L 479.882683 286.709375 
L 479.882683 263.094989 
L 443.790839 263.094989 
L 443.790839 286.709375 
" clip-path="url(#pbea094c948)" style="fill: #ffffff"/>
    <path d="M 479.882683 286.709375 
L 515.974527 286.709375 
L 515.974527 263.094989 
L 479.882683 263.094989 
L 479.882683 286.709375 
" clip-path="url(#pbea094c948)" style="fill: #ffffff"/>
    <path d="M 515.974527 286.709375 
L 552.066371 286.709375 
L 552.066371 263.094989 
L 515.974527 263.094989 
L 515.974527 286.709375 
" clip-path="url(#pbea094c948)" style="fill: #ffffff"/>
    <path d="M 552.066371 286.709375 
L 588.158216 286.709375 
L 588.158216 263.094989 
L 552.066371 263.094989 
L 552.066371 286.709375 
" clip-path="url(#pbea094c948)" style="fill: #ffffff"/>
    <path d="M 588.158216 286.709375 
L 624.25006 286.709375 
L 624.25006 263.094989 
L 588.158216 263.094989 
L 588.158216 286.709375 
" clip-path="url(#pbea094c948)" style="fill: #ffffff"/>
    <path d="M 82.872397 263.094989 
L 118.964241 263.094989 
L 118.964241 239.480602 
L 82.872397 239.480602 
L 82.872397 263.094989 
" clip-path="url(#pbea094c948)" style="fill: #ffffff"/>
    <path d="M 118.964241 263.094989 
L 155.056085 263.094989 
L 155.056085 239.480602 
L 118.964241 239.480602 
L 118.964241 263.094989 
" clip-path="url(#pbea094c948)" style="fill: #ffffff"/>
    <path d="M 155.056085 263.094989 
L 191.14793 263.094989 
L 191.14793 239.480602 
L 155.056085 239.480602 
L 155.056085 263.094989 
" clip-path="url(#pbea094c948)" style="fill: #ffffff"/>
    <path d="M 191.14793 263.094989 
L 227.239774 263.094989 
L 227.239774 239.480602 
L 191.14793 239.480602 
L 191.14793 263.094989 
" clip-path="url(#pbea094c948)" style="fill: #ffffff"/>
    <path d="M 227.239774 263.094989 
L 263.331618 263.094989 
L 263.331618 239.480602 
L 227.239774 239.480602 
L 227.239774 263.094989 
" clip-path="url(#pbea094c948)" style="fill: #ffffff"/>
    <path d="M 263.331618 263.094989 
L 299.423462 263.094989 
L 299.423462 239.480602 
L 263.331618 239.480602 
L 263.331618 263.094989 
" clip-path="url(#pbea094c948)" style="fill: #ffffff"/>
    <path d="M 299.423462 263.094989 
L 335.515306 263.094989 
L 335.515306 239.480602 
L 299.423462 239.480602 
L 299.423462 263.094989 
" clip-path="url(#pbea094c948)" style="fill: #ffffff"/>
    <path d="M 335.515306 263.094989 
L 371.607151 263.094989 
L 371.607151 239.480602 
L 335.515306 239.480602 
L 335.515306 263.094989 
" clip-path="url(#pbea094c948)" style="fill: #ffffff"/>
    <path d="M 371.607151 263.094989 
L 407.698995 263.094989 
L 407.698995 239.480602 
L 371.607151 239.480602 
L 371.607151 263.094989 
" clip-path="url(#pbea094c948)" style="fill: #ffffff"/>
    <path d="M 407.698995 263.094989 
L 443.790839 263.094989 
L 443.790839 239.480602 
L 407.698995 239.480602 
L 407.698995 263.094989 
" clip-path="url(#pbea094c948)" style="fill: #ffffff"/>
    <path d="M 443.790839 263.094989 
L 479.882683 263.094989 
L 479.882683 239.480602 
L 443.790839 239.480602 
L 443.790839 263.094989 
" clip-path="url(#pbea094c948)" style="fill: #ffffff"/>
    <path d="M 479.882683 263.094989 
L 515.974527 263.094989 
L 515.974527 239.480602 
L 479.882683 239.480602 
L 479.882683 263.094989 
" clip-path="url(#pbea094c948)" style="fill: #ffffff"/>
    <path d="M 515.974527 263.094989 
L 552.066371 263.094989 
L 552.066371 239.480602 
L 515.974527 239.480602 
L 515.974527 263.094989 
" clip-path="url(#pbea094c948)" style="fill: #ffffff"/>
    <path d="M 552.066371 263.094989 
L 588.158216 263.094989 
L 588.158216 239.480602 
L 552.066371 239.480602 
L 552.066371 263.094989 
" clip-path="url(#pbea094c948)" style="fill: #ffffff"/>
    <path d="M 588.158216 263.094989 
L 624.25006 263.094989 
L 624.25006 239.480602 
L 588.158216 239.480602 
L 588.158216 263.094989 
" clip-path="url(#pbea094c948)" style="fill: #ffffff"/>
    <path d="M 82.872397 239.480602 
L 118.964241 239.480602 
L 118.964241 215.866215 
L 82.872397 215.866215 
L 82.872397 239.480602 
" clip-path="url(#pbea094c948)" style="fill: #ffffff"/>
    <path d="M 118.964241 239.480602 
L 155.056085 239.480602 
L 155.056085 215.866215 
L 118.964241 215.866215 
L 118.964241 239.480602 
" clip-path="url(#pbea094c948)" style="fill: #ffffff"/>
    <path d="M 155.056085 239.480602 
L 191.14793 239.480602 
L 191.14793 215.866215 
L 155.056085 215.866215 
L 155.056085 239.480602 
" clip-path="url(#pbea094c948)" style="fill: #ffffff"/>
    <path d="M 191.14793 239.480602 
L 227.239774 239.480602 
L 227.239774 215.866215 
L 191.14793 215.866215 
L 191.14793 239.480602 
" clip-path="url(#pbea094c948)" style="fill: #ffffff"/>
    <path d="M 227.239774 239.480602 
L 263.331618 239.480602 
L 263.331618 215.866215 
L 227.239774 215.866215 
L 227.239774 239.480602 
" clip-path="url(#pbea094c948)" style="fill: #ffffff"/>
    <path d="M 263.331618 239.480602 
L 299.423462 239.480602 
L 299.423462 215.866215 
L 263.331618 215.866215 
L 263.331618 239.480602 
" clip-path="url(#pbea094c948)" style="fill: #ffffff"/>
    <path d="M 299.423462 239.480602 
L 335.515306 239.480602 
L 335.515306 215.866215 
L 299.423462 215.866215 
L 299.423462 239.480602 
" clip-path="url(#pbea094c948)" style="fill: #ffffff"/>
    <path d="M 335.515306 239.480602 
L 371.607151 239.480602 
L 371.607151 215.866215 
L 335.515306 215.866215 
L 335.515306 239.480602 
" clip-path="url(#pbea094c948)" style="fill: #ffffff"/>
    <path d="M 371.607151 239.480602 
L 407.698995 239.480602 
L 407.698995 215.866215 
L 371.607151 215.866215 
L 371.607151 239.480602 
" clip-path="url(#pbea094c948)" style="fill: #ffffff"/>
    <path d="M 407.698995 239.480602 
L 443.790839 239.480602 
L 443.790839 215.866215 
L 407.698995 215.866215 
L 407.698995 239.480602 
" clip-path="url(#pbea094c948)" style="fill: #ffffff"/>
    <path d="M 443.790839 239.480602 
L 479.882683 239.480602 
L 479.882683 215.866215 
L 443.790839 215.866215 
L 443.790839 239.480602 
" clip-path="url(#pbea094c948)" style="fill: #ffffff"/>
    <path d="M 479.882683 239.480602 
L 515.974527 239.480602 
L 515.974527 215.866215 
L 479.882683 215.866215 
L 479.882683 239.480602 
" clip-path="url(#pbea094c948)" style="fill: #ffffff"/>
    <path d="M 515.974527 239.480602 
L 552.066371 239.480602 
L 552.066371 215.866215 
L 515.974527 215.866215 
L 515.974527 239.480602 
" clip-path="url(#pbea094c948)" style="fill: #ffffff"/>
    <path d="M 552.066371 239.480602 
L 588.158216 239.480602 
L 588.158216 215.866215 
L 552.066371 215.866215 
L 552.066371 239.480602 
" clip-path="url(#pbea094c948)" style="fill: #ffffff"/>
    <path d="M 588.158216 239.480602 
L 624.25006 239.480602 
L 624.25006 215.866215 
L 588.158216 215.866215 
L 588.158216 239.480602 
" clip-path="url(#pbea094c948)" style="fill: #ffffff"/>
    <path d="M 82.872397 215.866215 
L 118.964241 215.866215 
L 118.964241 192.251828 
L 82.872397 192.251828 
L 82.872397 215.866215 
" clip-path="url(#pbea094c948)" style="fill: #ffffff"/>
    <path d="M 118.964241 215.866215 
L 155.056085 215.866215 
L 155.056085 192.251828 
L 118.964241 192.251828 
L 118.964241 215.866215 
" clip-path="url(#pbea094c948)" style="fill: #ffffff"/>
    <path d="M 155.056085 215.866215 
L 191.14793 215.866215 
L 191.14793 192.251828 
L 155.056085 192.251828 
L 155.056085 215.866215 
" clip-path="url(#pbea094c948)" style="fill: #ffffff"/>
    <path d="M 191.14793 215.866215 
L 227.239774 215.866215 
L 227.239774 192.251828 
L 191.14793 192.251828 
L 191.14793 215.866215 
" clip-path="url(#pbea094c948)" style="fill: #ffffff"/>
    <path d="M 227.239774 215.866215 
L 263.331618 215.866215 
L 263.331618 192.251828 
L 227.239774 192.251828 
L 227.239774 215.866215 
" clip-path="url(#pbea094c948)" style="fill: #ffffff"/>
    <path d="M 263.331618 215.866215 
L 299.423462 215.866215 
L 299.423462 192.251828 
L 263.331618 192.251828 
L 263.331618 215.866215 
" clip-path="url(#pbea094c948)" style="fill: #ffffff"/>
    <path d="M 299.423462 215.866215 
L 335.515306 215.866215 
L 335.515306 192.251828 
L 299.423462 192.251828 
L 299.423462 215.866215 
" clip-path="url(#pbea094c948)" style="fill: #ffffff"/>
    <path d="M 335.515306 215.866215 
L 371.607151 215.866215 
L 371.607151 192.251828 
L 335.515306 192.251828 
L 335.515306 215.866215 
" clip-path="url(#pbea094c948)" style="fill: #ffffff"/>
    <path d="M 371.607151 215.866215 
L 407.698995 215.866215 
L 407.698995 192.251828 
L 371.607151 192.251828 
L 371.607151 215.866215 
" clip-path="url(#pbea094c948)" style="fill: #ffffff"/>
    <path d="M 407.698995 215.866215 
L 443.790839 215.866215 
L 443.790839 192.251828 
L 407.698995 192.251828 
L 407.698995 215.866215 
" clip-path="url(#pbea094c948)" style="fill: #ffffff"/>
    <path d="M 443.790839 215.866215 
L 479.882683 215.866215 
L 479.882683 192.251828 
L 443.790839 192.251828 
L 443.790839 215.866215 
" clip-path="url(#pbea094c948)" style="fill: #ffffff"/>
    <path d="M 479.882683 215.866215 
L 515.974527 215.866215 
L 515.974527 192.251828 
L 479.882683 192.251828 
L 479.882683 215.866215 
" clip-path="url(#pbea094c948)" style="fill: #ffffff"/>
    <path d="M 515.974527 215.866215 
L 552.066371 215.866215 
L 552.066371 192.251828 
L 515.974527 192.251828 
L 515.974527 215.866215 
" clip-path="url(#pbea094c948)" style="fill: #ffffff"/>
    <path d="M 552.066371 215.866215 
L 588.158216 215.866215 
L 588.158216 192.251828 
L 552.066371 192.251828 
L 552.066371 215.866215 
" clip-path="url(#pbea094c948)" style="fill: #ffffff"/>
    <path d="M 588.158216 215.866215 
L 624.25006 215.866215 
L 624.25006 192.251828 
L 588.158216 192.251828 
L 588.158216 215.866215 
" clip-path="url(#pbea094c948)" style="fill: #ffffff"/>
    <path d="M 82.872397 192.251828 
L 118.964241 192.251828 
L 118.964241 168.637441 
L 82.872397 168.637441 
L 82.872397 192.251828 
" clip-path="url(#pbea094c948)" style="fill: #ffffff"/>
    <path d="M 118.964241 192.251828 
L 155.056085 192.251828 
L 155.056085 168.637441 
L 118.964241 168.637441 
L 118.964241 192.251828 
" clip-path="url(#pbea094c948)" style="fill: #ffffff"/>
    <path d="M 155.056085 192.251828 
L 191.14793 192.251828 
L 191.14793 168.637441 
L 155.056085 168.637441 
L 155.056085 192.251828 
" clip-path="url(#pbea094c948)" style="fill: #ffffff"/>
    <path d="M 191.14793 192.251828 
L 227.239774 192.251828 
L 227.239774 168.637441 
L 191.14793 168.637441 
L 191.14793 192.251828 
" clip-path="url(#pbea094c948)" style="fill: #ffffff"/>
    <path d="M 227.239774 192.251828 
L 263.331618 192.251828 
L 263.331618 168.637441 
L 227.239774 168.637441 
L 227.239774 192.251828 
" clip-path="url(#pbea094c948)" style="fill: #ffffff"/>
    <path d="M 263.331618 192.251828 
L 299.423462 192.251828 
L 299.423462 168.637441 
L 263.331618 168.637441 
L 263.331618 192.251828 
" clip-path="url(#pbea094c948)" style="fill: #ffffff"/>
    <path d="M 299.423462 192.251828 
L 335.515306 192.251828 
L 335.515306 168.637441 
L 299.423462 168.637441 
L 299.423462 192.251828 
" clip-path="url(#pbea094c948)" style="fill: #ffffff"/>
    <path d="M 335.515306 192.251828 
L 371.607151 192.251828 
L 371.607151 168.637441 
L 335.515306 168.637441 
L 335.515306 192.251828 
" clip-path="url(#pbea094c948)" style="fill: #ffffff"/>
    <path d="M 371.607151 192.251828 
L 407.698995 192.251828 
L 407.698995 168.637441 
L 371.607151 168.637441 
L 371.607151 192.251828 
" clip-path="url(#pbea094c948)" style="fill: #ffffff"/>
    <path d="M 407.698995 192.251828 
L 443.790839 192.251828 
L 443.790839 168.637441 
L 407.698995 168.637441 
L 407.698995 192.251828 
" clip-path="url(#pbea094c948)" style="fill: #ffffff"/>
    <path d="M 443.790839 192.251828 
L 479.882683 192.251828 
L 479.882683 168.637441 
L 443.790839 168.637441 
L 443.790839 192.251828 
" clip-path="url(#pbea094c948)" style="fill: #ffffff"/>
    <path d="M 479.882683 192.251828 
L 515.974527 192.251828 
L 515.974527 168.637441 
L 479.882683 168.637441 
L 479.882683 192.251828 
" clip-path="url(#pbea094c948)" style="fill: #ffffff"/>
    <path d="M 515.974527 192.251828 
L 552.066371 192.251828 
L 552.066371 168.637441 
L 515.974527 168.637441 
L 515.974527 192.251828 
" clip-path="url(#pbea094c948)" style="fill: #ffffff"/>
    <path d="M 552.066371 192.251828 
L 588.158216 192.251828 
L 588.158216 168.637441 
L 552.066371 168.637441 
L 552.066371 192.251828 
" clip-path="url(#pbea094c948)" style="fill: #ffffff"/>
    <path d="M 588.158216 192.251828 
L 624.25006 192.251828 
L 624.25006 168.637441 
L 588.158216 168.637441 
L 588.158216 192.251828 
" clip-path="url(#pbea094c948)" style="fill: #ffffff"/>
    <path d="M 82.872397 168.637441 
L 118.964241 168.637441 
L 118.964241 145.023054 
L 82.872397 145.023054 
L 82.872397 168.637441 
" clip-path="url(#pbea094c948)" style="fill: #ffffff"/>
    <path d="M 118.964241 168.637441 
L 155.056085 168.637441 
L 155.056085 145.023054 
L 118.964241 145.023054 
L 118.964241 168.637441 
" clip-path="url(#pbea094c948)" style="fill: #ffffff"/>
    <path d="M 155.056085 168.637441 
L 191.14793 168.637441 
L 191.14793 145.023054 
L 155.056085 145.023054 
L 155.056085 168.637441 
" clip-path="url(#pbea094c948)" style="fill: #ffffff"/>
    <path d="M 191.14793 168.637441 
L 227.239774 168.637441 
L 227.239774 145.023054 
L 191.14793 145.023054 
L 191.14793 168.637441 
" clip-path="url(#pbea094c948)" style="fill: #ffffff"/>
    <path d="M 227.239774 168.637441 
L 263.331618 168.637441 
L 263.331618 145.023054 
L 227.239774 145.023054 
L 227.239774 168.637441 
" clip-path="url(#pbea094c948)" style="fill: #ffffff"/>
    <path d="M 263.331618 168.637441 
L 299.423462 168.637441 
L 299.423462 145.023054 
L 263.331618 145.023054 
L 263.331618 168.637441 
" clip-path="url(#pbea094c948)" style="fill: #ffffff"/>
    <path d="M 299.423462 168.637441 
L 335.515306 168.637441 
L 335.515306 145.023054 
L 299.423462 145.023054 
L 299.423462 168.637441 
" clip-path="url(#pbea094c948)" style="fill: #ffffff"/>
    <path d="M 335.515306 168.637441 
L 371.607151 168.637441 
L 371.607151 145.023054 
L 335.515306 145.023054 
L 335.515306 168.637441 
" clip-path="url(#pbea094c948)" style="fill: #ffffff"/>
    <path d="M 371.607151 168.637441 
L 407.698995 168.637441 
L 407.698995 145.023054 
L 371.607151 145.023054 
L 371.607151 168.637441 
" clip-path="url(#pbea094c948)" style="fill: #ffffff"/>
    <path d="M 407.698995 168.637441 
L 443.790839 168.637441 
L 443.790839 145.023054 
L 407.698995 145.023054 
L 407.698995 168.637441 
" clip-path="url(#pbea094c948)" style="fill: #ffffff"/>
    <path d="M 443.790839 168.637441 
L 479.882683 168.637441 
L 479.882683 145.023054 
L 443.790839 145.023054 
L 443.790839 168.637441 
" clip-path="url(#pbea094c948)" style="fill: #ffffff"/>
    <path d="M 479.882683 168.637441 
L 515.974527 168.637441 
L 515.974527 145.023054 
L 479.882683 145.023054 
L 479.882683 168.637441 
" clip-path="url(#pbea094c948)" style="fill: #ffffff"/>
    <path d="M 515.974527 168.637441 
L 552.066371 168.637441 
L 552.066371 145.023054 
L 515.974527 145.023054 
L 515.974527 168.637441 
" clip-path="url(#pbea094c948)" style="fill: #ffffff"/>
    <path d="M 552.066371 168.637441 
L 588.158216 168.637441 
L 588.158216 145.023054 
L 552.066371 145.023054 
L 552.066371 168.637441 
" clip-path="url(#pbea094c948)" style="fill: #ffffff"/>
    <path d="M 588.158216 168.637441 
L 624.25006 168.637441 
L 624.25006 145.023054 
L 588.158216 145.023054 
L 588.158216 168.637441 
" clip-path="url(#pbea094c948)" style="fill: #ffffff"/>
    <path d="M 82.872397 145.023054 
L 118.964241 145.023054 
L 118.964241 121.408668 
L 82.872397 121.408668 
L 82.872397 145.023054 
" clip-path="url(#pbea094c948)" style="fill: #ffffff"/>
    <path d="M 118.964241 145.023054 
L 155.056085 145.023054 
L 155.056085 121.408668 
L 118.964241 121.408668 
L 118.964241 145.023054 
" clip-path="url(#pbea094c948)" style="fill: #ffffff"/>
    <path d="M 155.056085 145.023054 
L 191.14793 145.023054 
L 191.14793 121.408668 
L 155.056085 121.408668 
L 155.056085 145.023054 
" clip-path="url(#pbea094c948)" style="fill: #ffffff"/>
    <path d="M 191.14793 145.023054 
L 227.239774 145.023054 
L 227.239774 121.408668 
L 191.14793 121.408668 
L 191.14793 145.023054 
" clip-path="url(#pbea094c948)" style="fill: #ffffff"/>
    <path d="M 227.239774 145.023054 
L 263.331618 145.023054 
L 263.331618 121.408668 
L 227.239774 121.408668 
L 227.239774 145.023054 
" clip-path="url(#pbea094c948)" style="fill: #ffffff"/>
    <path d="M 263.331618 145.023054 
L 299.423462 145.023054 
L 299.423462 121.408668 
L 263.331618 121.408668 
L 263.331618 145.023054 
" clip-path="url(#pbea094c948)" style="fill: #ffffff"/>
    <path d="M 299.423462 145.023054 
L 335.515306 145.023054 
L 335.515306 121.408668 
L 299.423462 121.408668 
L 299.423462 145.023054 
" clip-path="url(#pbea094c948)" style="fill: #ffffff"/>
    <path d="M 335.515306 145.023054 
L 371.607151 145.023054 
L 371.607151 121.408668 
L 335.515306 121.408668 
L 335.515306 145.023054 
" clip-path="url(#pbea094c948)" style="fill: #ffffff"/>
    <path d="M 371.607151 145.023054 
L 407.698995 145.023054 
L 407.698995 121.408668 
L 371.607151 121.408668 
L 371.607151 145.023054 
" clip-path="url(#pbea094c948)" style="fill: #ffffff"/>
    <path d="M 407.698995 145.023054 
L 443.790839 145.023054 
L 443.790839 121.408668 
L 407.698995 121.408668 
L 407.698995 145.023054 
" clip-path="url(#pbea094c948)" style="fill: #ffffff"/>
    <path d="M 443.790839 145.023054 
L 479.882683 145.023054 
L 479.882683 121.408668 
L 443.790839 121.408668 
L 443.790839 145.023054 
" clip-path="url(#pbea094c948)" style="fill: #ffffff"/>
    <path d="M 479.882683 145.023054 
L 515.974527 145.023054 
L 515.974527 121.408668 
L 479.882683 121.408668 
L 479.882683 145.023054 
" clip-path="url(#pbea094c948)" style="fill: #ffffff"/>
    <path d="M 515.974527 145.023054 
L 552.066371 145.023054 
L 552.066371 121.408668 
L 515.974527 121.408668 
L 515.974527 145.023054 
" clip-path="url(#pbea094c948)" style="fill: #ffffff"/>
    <path d="M 552.066371 145.023054 
L 588.158216 145.023054 
L 588.158216 121.408668 
L 552.066371 121.408668 
L 552.066371 145.023054 
" clip-path="url(#pbea094c948)" style="fill: #ffffff"/>
    <path d="M 588.158216 145.023054 
L 624.25006 145.023054 
L 624.25006 121.408668 
L 588.158216 121.408668 
L 588.158216 145.023054 
" clip-path="url(#pbea094c948)" style="fill: #ffffff"/>
    <path d="M 82.872397 121.408668 
L 118.964241 121.408668 
L 118.964241 97.794281 
L 82.872397 97.794281 
L 82.872397 121.408668 
" clip-path="url(#pbea094c948)" style="fill: #ffffff"/>
    <path d="M 118.964241 121.408668 
L 155.056085 121.408668 
L 155.056085 97.794281 
L 118.964241 97.794281 
L 118.964241 121.408668 
" clip-path="url(#pbea094c948)" style="fill: #ffffff"/>
    <path d="M 155.056085 121.408668 
L 191.14793 121.408668 
L 191.14793 97.794281 
L 155.056085 97.794281 
L 155.056085 121.408668 
" clip-path="url(#pbea094c948)" style="fill: #ffffff"/>
    <path d="M 191.14793 121.408668 
L 227.239774 121.408668 
L 227.239774 97.794281 
L 191.14793 97.794281 
L 191.14793 121.408668 
" clip-path="url(#pbea094c948)" style="fill: #ffffff"/>
    <path d="M 227.239774 121.408668 
L 263.331618 121.408668 
L 263.331618 97.794281 
L 227.239774 97.794281 
L 227.239774 121.408668 
" clip-path="url(#pbea094c948)" style="fill: #ffffff"/>
    <path d="M 263.331618 121.408668 
L 299.423462 121.408668 
L 299.423462 97.794281 
L 263.331618 97.794281 
L 263.331618 121.408668 
" clip-path="url(#pbea094c948)" style="fill: #ffffff"/>
    <path d="M 299.423462 121.408668 
L 335.515306 121.408668 
L 335.515306 97.794281 
L 299.423462 97.794281 
L 299.423462 121.408668 
" clip-path="url(#pbea094c948)" style="fill: #ffffff"/>
    <path d="M 335.515306 121.408668 
L 371.607151 121.408668 
L 371.607151 97.794281 
L 335.515306 97.794281 
L 335.515306 121.408668 
" clip-path="url(#pbea094c948)" style="fill: #ffffff"/>
    <path d="M 371.607151 121.408668 
L 407.698995 121.408668 
L 407.698995 97.794281 
L 371.607151 97.794281 
L 371.607151 121.408668 
" clip-path="url(#pbea094c948)" style="fill: #ffffff"/>
    <path d="M 407.698995 121.408668 
L 443.790839 121.408668 
L 443.790839 97.794281 
L 407.698995 97.794281 
L 407.698995 121.408668 
" clip-path="url(#pbea094c948)" style="fill: #ffffff"/>
    <path d="M 443.790839 121.408668 
L 479.882683 121.408668 
L 479.882683 97.794281 
L 443.790839 97.794281 
L 443.790839 121.408668 
" clip-path="url(#pbea094c948)" style="fill: #ffffff"/>
    <path d="M 479.882683 121.408668 
L 515.974527 121.408668 
L 515.974527 97.794281 
L 479.882683 97.794281 
L 479.882683 121.408668 
" clip-path="url(#pbea094c948)" style="fill: #ffffff"/>
    <path d="M 515.974527 121.408668 
L 552.066371 121.408668 
L 552.066371 97.794281 
L 515.974527 97.794281 
L 515.974527 121.408668 
" clip-path="url(#pbea094c948)" style="fill: #ffffff"/>
    <path d="M 552.066371 121.408668 
L 588.158216 121.408668 
L 588.158216 97.794281 
L 552.066371 97.794281 
L 552.066371 121.408668 
" clip-path="url(#pbea094c948)" style="fill: #ffffff"/>
    <path d="M 588.158216 121.408668 
L 624.25006 121.408668 
L 624.25006 97.794281 
L 588.158216 97.794281 
L 588.158216 121.408668 
" clip-path="url(#pbea094c948)" style="fill: #ffffff"/>
    <path d="M 82.872397 97.794281 
L 118.964241 97.794281 
L 118.964241 74.179894 
L 82.872397 74.179894 
L 82.872397 97.794281 
" clip-path="url(#pbea094c948)" style="fill: #ffffff"/>
    <path d="M 118.964241 97.794281 
L 155.056085 97.794281 
L 155.056085 74.179894 
L 118.964241 74.179894 
L 118.964241 97.794281 
" clip-path="url(#pbea094c948)" style="fill: #ffffff"/>
    <path d="M 155.056085 97.794281 
L 191.14793 97.794281 
L 191.14793 74.179894 
L 155.056085 74.179894 
L 155.056085 97.794281 
" clip-path="url(#pbea094c948)" style="fill: #ffffff"/>
    <path d="M 191.14793 97.794281 
L 227.239774 97.794281 
L 227.239774 74.179894 
L 191.14793 74.179894 
L 191.14793 97.794281 
" clip-path="url(#pbea094c948)" style="fill: #ffffff"/>
    <path d="M 227.239774 97.794281 
L 263.331618 97.794281 
L 263.331618 74.179894 
L 227.239774 74.179894 
L 227.239774 97.794281 
" clip-path="url(#pbea094c948)" style="fill: #ffffff"/>
    <path d="M 263.331618 97.794281 
L 299.423462 97.794281 
L 299.423462 74.179894 
L 263.331618 74.179894 
L 263.331618 97.794281 
" clip-path="url(#pbea094c948)" style="fill: #ffffff"/>
    <path d="M 299.423462 97.794281 
L 335.515306 97.794281 
L 335.515306 74.179894 
L 299.423462 74.179894 
L 299.423462 97.794281 
" clip-path="url(#pbea094c948)" style="fill: #ffffff"/>
    <path d="M 335.515306 97.794281 
L 371.607151 97.794281 
L 371.607151 74.179894 
L 335.515306 74.179894 
L 335.515306 97.794281 
" clip-path="url(#pbea094c948)" style="fill: #ffffff"/>
    <path d="M 371.607151 97.794281 
L 407.698995 97.794281 
L 407.698995 74.179894 
L 371.607151 74.179894 
L 371.607151 97.794281 
" clip-path="url(#pbea094c948)" style="fill: #ffffff"/>
    <path d="M 407.698995 97.794281 
L 443.790839 97.794281 
L 443.790839 74.179894 
L 407.698995 74.179894 
L 407.698995 97.794281 
" clip-path="url(#pbea094c948)" style="fill: #ffffff"/>
    <path d="M 443.790839 97.794281 
L 479.882683 97.794281 
L 479.882683 74.179894 
L 443.790839 74.179894 
L 443.790839 97.794281 
" clip-path="url(#pbea094c948)" style="fill: #ffffff"/>
    <path d="M 479.882683 97.794281 
L 515.974527 97.794281 
L 515.974527 74.179894 
L 479.882683 74.179894 
L 479.882683 97.794281 
" clip-path="url(#pbea094c948)" style="fill: #ffffff"/>
    <path d="M 515.974527 97.794281 
L 552.066371 97.794281 
L 552.066371 74.179894 
L 515.974527 74.179894 
L 515.974527 97.794281 
" clip-path="url(#pbea094c948)" style="fill: #ffffff"/>
    <path d="M 552.066371 97.794281 
L 588.158216 97.794281 
L 588.158216 74.179894 
L 552.066371 74.179894 
L 552.066371 97.794281 
" clip-path="url(#pbea094c948)" style="fill: #ffffff"/>
    <path d="M 588.158216 97.794281 
L 624.25006 97.794281 
L 624.25006 74.179894 
L 588.158216 74.179894 
L 588.158216 97.794281 
" clip-path="url(#pbea094c948)" style="fill: #ffffff"/>
    <path d="M 82.872397 74.179894 
L 118.964241 74.179894 
L 118.964241 50.565507 
L 82.872397 50.565507 
L 82.872397 74.179894 
" clip-path="url(#pbea094c948)" style="fill: #ffffff"/>
    <path d="M 118.964241 74.179894 
L 155.056085 74.179894 
L 155.056085 50.565507 
L 118.964241 50.565507 
L 118.964241 74.179894 
" clip-path="url(#pbea094c948)" style="fill: #ffffff"/>
    <path d="M 155.056085 74.179894 
L 191.14793 74.179894 
L 191.14793 50.565507 
L 155.056085 50.565507 
L 155.056085 74.179894 
" clip-path="url(#pbea094c948)" style="fill: #ffffff"/>
    <path d="M 191.14793 74.179894 
L 227.239774 74.179894 
L 227.239774 50.565507 
L 191.14793 50.565507 
L 191.14793 74.179894 
" clip-path="url(#pbea094c948)" style="fill: #ffffff"/>
    <path d="M 227.239774 74.179894 
L 263.331618 74.179894 
L 263.331618 50.565507 
L 227.239774 50.565507 
L 227.239774 74.179894 
" clip-path="url(#pbea094c948)" style="fill: #ffffff"/>
    <path d="M 263.331618 74.179894 
L 299.423462 74.179894 
L 299.423462 50.565507 
L 263.331618 50.565507 
L 263.331618 74.179894 
" clip-path="url(#pbea094c948)" style="fill: #ffffff"/>
    <path d="M 299.423462 74.179894 
L 335.515306 74.179894 
L 335.515306 50.565507 
L 299.423462 50.565507 
L 299.423462 74.179894 
" clip-path="url(#pbea094c948)" style="fill: #ffffff"/>
    <path d="M 335.515306 74.179894 
L 371.607151 74.179894 
L 371.607151 50.565507 
L 335.515306 50.565507 
L 335.515306 74.179894 
" clip-path="url(#pbea094c948)" style="fill: #ffffff"/>
    <path d="M 371.607151 74.179894 
L 407.698995 74.179894 
L 407.698995 50.565507 
L 371.607151 50.565507 
L 371.607151 74.179894 
" clip-path="url(#pbea094c948)" style="fill: #ffffff"/>
    <path d="M 407.698995 74.179894 
L 443.790839 74.179894 
L 443.790839 50.565507 
L 407.698995 50.565507 
L 407.698995 74.179894 
" clip-path="url(#pbea094c948)" style="fill: #ffffff"/>
    <path d="M 443.790839 74.179894 
L 479.882683 74.179894 
L 479.882683 50.565507 
L 443.790839 50.565507 
L 443.790839 74.179894 
" clip-path="url(#pbea094c948)" style="fill: #ffffff"/>
    <path d="M 479.882683 74.179894 
L 515.974527 74.179894 
L 515.974527 50.565507 
L 479.882683 50.565507 
L 479.882683 74.179894 
" clip-path="url(#pbea094c948)" style="fill: #ffffff"/>
    <path d="M 515.974527 74.179894 
L 552.066371 74.179894 
L 552.066371 50.565507 
L 515.974527 50.565507 
L 515.974527 74.179894 
" clip-path="url(#pbea094c948)" style="fill: #ffffff"/>
    <path d="M 552.066371 74.179894 
L 588.158216 74.179894 
L 588.158216 50.565507 
L 552.066371 50.565507 
L 552.066371 74.179894 
" clip-path="url(#pbea094c948)" style="fill: #ffffff"/>
    <path d="M 588.158216 74.179894 
L 624.25006 74.179894 
L 624.25006 50.565507 
L 588.158216 50.565507 
L 588.158216 74.179894 
" clip-path="url(#pbea094c948)" style="fill: #ffffff"/>
   </g>
   <g id="matplotlib.axis_1">
    <g id="xtick_1">
     <g id="line2d_1">
      <defs>
       <path id="m223e53ce7d" d="M 0 0 
L 0 3.5 
" style="stroke: #000000; stroke-width: 0.8"/>
      </defs>
      <g>
       <use xlink:href="#m223e53ce7d" x="138.51858" y="418.949942" style="stroke: #000000; stroke-width: 0.8"/>
      </g>
     </g>
    </g>
    <g id="xtick_2">
     <g id="line2d_2">
      <g>
       <use xlink:href="#m223e53ce7d" x="207.194869" y="418.949942" style="stroke: #000000; stroke-width: 0.8"/>
      </g>
     </g>
    </g>
    <g id="xtick_3">
     <g id="line2d_3">
      <g>
       <use xlink:href="#m223e53ce7d" x="275.871158" y="418.949942" style="stroke: #000000; stroke-width: 0.8"/>
      </g>
     </g>
    </g>
    <g id="xtick_4">
     <g id="line2d_4">
      <g>
       <use xlink:href="#m223e53ce7d" x="344.547447" y="418.949942" style="stroke: #000000; stroke-width: 0.8"/>
      </g>
     </g>
    </g>
    <g id="xtick_5">
     <g id="line2d_5">
      <g>
       <use xlink:href="#m223e53ce7d" x="413.223737" y="418.949942" style="stroke: #000000; stroke-width: 0.8"/>
      </g>
     </g>
    </g>
    <g id="xtick_6">
     <g id="line2d_6">
      <g>
       <use xlink:href="#m223e53ce7d" x="481.900026" y="418.949942" style="stroke: #000000; stroke-width: 0.8"/>
      </g>
     </g>
    </g>
    <g id="xtick_7">
     <g id="line2d_7">
      <g>
       <use xlink:href="#m223e53ce7d" x="550.576315" y="418.949942" style="stroke: #000000; stroke-width: 0.8"/>
      </g>
     </g>
    </g>
    <g id="xtick_8">
     <g id="line2d_8">
      <g>
       <use xlink:href="#m223e53ce7d" x="619.252604" y="418.949942" style="stroke: #000000; stroke-width: 0.8"/>
      </g>
     </g>
    </g>
   </g>
   <g id="matplotlib.axis_2">
    <g id="ytick_1">
     <g id="line2d_9">
      <defs>
       <path id="m6e9295fc95" d="M 0 0 
L -3.5 0 
" style="stroke: #000000; stroke-width: 0.8"/>
      </defs>
      <g>
       <use xlink:href="#m6e9295fc95" x="72.044844" y="385.523952" style="stroke: #000000; stroke-width: 0.8"/>
      </g>
     </g>
     <g id="text_1">
      <!-- −1.0 -->
      <g transform="translate(28.620625 391.22278) scale(0.15 -0.15)">
       <defs>
        <path id="DejaVuSans-2212" d="M 678 2272 
L 4684 2272 
L 4684 1741 
L 678 1741 
L 678 2272 
z
" transform="scale(0.015625)"/>
        <path id="DejaVuSans-31" d="M 794 531 
L 1825 531 
L 1825 4091 
L 703 3866 
L 703 4441 
L 1819 4666 
L 2450 4666 
L 2450 531 
L 3481 531 
L 3481 0 
L 794 0 
L 794 531 
z
" transform="scale(0.015625)"/>
        <path id="DejaVuSans-2e" d="M 684 794 
L 1344 794 
L 1344 0 
L 684 0 
L 684 794 
z
" transform="scale(0.015625)"/>
        <path id="DejaVuSans-30" d="M 2034 4250 
Q 1547 4250 1301 3770 
Q 1056 3291 1056 2328 
Q 1056 1369 1301 889 
Q 1547 409 2034 409 
Q 2525 409 2770 889 
Q 3016 1369 3016 2328 
Q 3016 3291 2770 3770 
Q 2525 4250 2034 4250 
z
M 2034 4750 
Q 2819 4750 3233 4129 
Q 3647 3509 3647 2328 
Q 3647 1150 3233 529 
Q 2819 -91 2034 -91 
Q 1250 -91 836 529 
Q 422 1150 422 2328 
Q 422 3509 836 4129 
Q 1250 4750 2034 4750 
z
" transform="scale(0.015625)"/>
       </defs>
       <use xlink:href="#DejaVuSans-2212"/>
       <use xlink:href="#DejaVuSans-31" transform="translate(83.789062 0)"/>
       <use xlink:href="#DejaVuSans-2e" transform="translate(147.412109 0)"/>
       <use xlink:href="#DejaVuSans-30" transform="translate(179.199219 0)"/>
      </g>
     </g>
    </g>
    <g id="ytick_2">
     <g id="line2d_10">
      <g>
       <use xlink:href="#m6e9295fc95" x="72.044844" y="306.59868" style="stroke: #000000; stroke-width: 0.8"/>
      </g>
     </g>
     <g id="text_2">
      <!-- −0.5 -->
      <g transform="translate(28.620625 312.297508) scale(0.15 -0.15)">
       <defs>
        <path id="DejaVuSans-35" d="M 691 4666 
L 3169 4666 
L 3169 4134 
L 1269 4134 
L 1269 2991 
Q 1406 3038 1543 3061 
Q 1681 3084 1819 3084 
Q 2600 3084 3056 2656 
Q 3513 2228 3513 1497 
Q 3513 744 3044 326 
Q 2575 -91 1722 -91 
Q 1428 -91 1123 -41 
Q 819 9 494 109 
L 494 744 
Q 775 591 1075 516 
Q 1375 441 1709 441 
Q 2250 441 2565 725 
Q 2881 1009 2881 1497 
Q 2881 1984 2565 2268 
Q 2250 2553 1709 2553 
Q 1456 2553 1204 2497 
Q 953 2441 691 2322 
L 691 4666 
z
" transform="scale(0.015625)"/>
       </defs>
       <use xlink:href="#DejaVuSans-2212"/>
       <use xlink:href="#DejaVuSans-30" transform="translate(83.789062 0)"/>
       <use xlink:href="#DejaVuSans-2e" transform="translate(147.412109 0)"/>
       <use xlink:href="#DejaVuSans-35" transform="translate(179.199219 0)"/>
      </g>
     </g>
    </g>
    <g id="ytick_3">
     <g id="line2d_11">
      <g>
       <use xlink:href="#m6e9295fc95" x="72.044844" y="227.673408" style="stroke: #000000; stroke-width: 0.8"/>
      </g>
     </g>
     <g id="text_3">
      <!-- 0.0 -->
      <g transform="translate(41.190156 233.372236) scale(0.15 -0.15)">
       <use xlink:href="#DejaVuSans-30"/>
       <use xlink:href="#DejaVuSans-2e" transform="translate(63.623047 0)"/>
       <use xlink:href="#DejaVuSans-30" transform="translate(95.410156 0)"/>
      </g>
     </g>
    </g>
    <g id="ytick_4">
     <g id="line2d_12">
      <g>
       <use xlink:href="#m6e9295fc95" x="72.044844" y="148.748136" style="stroke: #000000; stroke-width: 0.8"/>
      </g>
     </g>
     <g id="text_4">
      <!-- 0.5 -->
      <g transform="translate(41.190156 154.446964) scale(0.15 -0.15)">
       <use xlink:href="#DejaVuSans-30"/>
       <use xlink:href="#DejaVuSans-2e" transform="translate(63.623047 0)"/>
       <use xlink:href="#DejaVuSans-35" transform="translate(95.410156 0)"/>
      </g>
     </g>
    </g>
    <g id="ytick_5">
     <g id="line2d_13">
      <g>
       <use xlink:href="#m6e9295fc95" x="72.044844" y="69.822864" style="stroke: #000000; stroke-width: 0.8"/>
      </g>
     </g>
     <g id="text_5">
      <!-- 1.0 -->
      <g transform="translate(41.190156 75.521692) scale(0.15 -0.15)">
       <use xlink:href="#DejaVuSans-31"/>
       <use xlink:href="#DejaVuSans-2e" transform="translate(63.623047 0)"/>
       <use xlink:href="#DejaVuSans-30" transform="translate(95.410156 0)"/>
      </g>
     </g>
    </g>
    <g id="text_6">
     <!-- roll -->
     <g transform="translate(20.877187 241.678252) rotate(-90) scale(0.18 -0.18)">
      <defs>
       <path id="DejaVuSans-72" d="M 2631 2963 
Q 2534 3019 2420 3045 
Q 2306 3072 2169 3072 
Q 1681 3072 1420 2755 
Q 1159 2438 1159 1844 
L 1159 0 
L 581 0 
L 581 3500 
L 1159 3500 
L 1159 2956 
Q 1341 3275 1631 3429 
Q 1922 3584 2338 3584 
Q 2397 3584 2469 3576 
Q 2541 3569 2628 3553 
L 2631 2963 
z
" transform="scale(0.015625)"/>
       <path id="DejaVuSans-6f" d="M 1959 3097 
Q 1497 3097 1228 2736 
Q 959 2375 959 1747 
Q 959 1119 1226 758 
Q 1494 397 1959 397 
Q 2419 397 2687 759 
Q 2956 1122 2956 1747 
Q 2956 2369 2687 2733 
Q 2419 3097 1959 3097 
z
M 1959 3584 
Q 2709 3584 3137 3096 
Q 3566 2609 3566 1747 
Q 3566 888 3137 398 
Q 2709 -91 1959 -91 
Q 1206 -91 779 398 
Q 353 888 353 1747 
Q 353 2609 779 3096 
Q 1206 3584 1959 3584 
z
" transform="scale(0.015625)"/>
       <path id="DejaVuSans-6c" d="M 603 4863 
L 1178 4863 
L 1178 0 
L 603 0 
L 603 4863 
z
" transform="scale(0.015625)"/>
      </defs>
      <use xlink:href="#DejaVuSans-72"/>
      <use xlink:href="#DejaVuSans-6f" transform="translate(38.863281 0)"/>
      <use xlink:href="#DejaVuSans-6c" transform="translate(100.044922 0)"/>
      <use xlink:href="#DejaVuSans-6c" transform="translate(127.828125 0)"/>
     </g>
    </g>
   </g>
   <g id="patch_3">
    <path d="M 72.044844 418.949942 
L 72.044844 36.396875 
" style="fill: none; stroke: #000000; stroke-width: 0.8; stroke-linejoin: miter; stroke-linecap: square"/>
   </g>
   <g id="patch_4">
    <path d="M 635.077613 418.949942 
L 635.077613 36.396875 
" style="fill: none; stroke: #000000; stroke-width: 0.8; stroke-linejoin: miter; stroke-linecap: square"/>
   </g>
   <g id="patch_5">
    <path d="M 72.044844 418.949942 
L 635.077613 418.949942 
" style="fill: none; stroke: #000000; stroke-width: 0.8; stroke-linejoin: miter; stroke-linecap: square"/>
   </g>
   <g id="patch_6">
    <path d="M 72.044844 36.396875 
L 635.077613 36.396875 
" style="fill: none; stroke: #000000; stroke-width: 0.8; stroke-linejoin: miter; stroke-linecap: square"/>
   </g>
   <g id="text_7">
    <!-- Quadrotor -->
    <g transform="translate(302.720603 22.396875) scale(0.2 -0.2)">
     <defs>
      <path id="DejaVuSans-51" d="M 2522 4238 
Q 1834 4238 1429 3725 
Q 1025 3213 1025 2328 
Q 1025 1447 1429 934 
Q 1834 422 2522 422 
Q 3209 422 3611 934 
Q 4013 1447 4013 2328 
Q 4013 3213 3611 3725 
Q 3209 4238 2522 4238 
z
M 3406 84 
L 4238 -825 
L 3475 -825 
L 2784 -78 
Q 2681 -84 2626 -87 
Q 2572 -91 2522 -91 
Q 1538 -91 948 567 
Q 359 1225 359 2328 
Q 359 3434 948 4092 
Q 1538 4750 2522 4750 
Q 3503 4750 4090 4092 
Q 4678 3434 4678 2328 
Q 4678 1516 4351 937 
Q 4025 359 3406 84 
z
" transform="scale(0.015625)"/>
      <path id="DejaVuSans-75" d="M 544 1381 
L 544 3500 
L 1119 3500 
L 1119 1403 
Q 1119 906 1312 657 
Q 1506 409 1894 409 
Q 2359 409 2629 706 
Q 2900 1003 2900 1516 
L 2900 3500 
L 3475 3500 
L 3475 0 
L 2900 0 
L 2900 538 
Q 2691 219 2414 64 
Q 2138 -91 1772 -91 
Q 1169 -91 856 284 
Q 544 659 544 1381 
z
M 1991 3584 
L 1991 3584 
z
" transform="scale(0.015625)"/>
      <path id="DejaVuSans-61" d="M 2194 1759 
Q 1497 1759 1228 1600 
Q 959 1441 959 1056 
Q 959 750 1161 570 
Q 1363 391 1709 391 
Q 2188 391 2477 730 
Q 2766 1069 2766 1631 
L 2766 1759 
L 2194 1759 
z
M 3341 1997 
L 3341 0 
L 2766 0 
L 2766 531 
Q 2569 213 2275 61 
Q 1981 -91 1556 -91 
Q 1019 -91 701 211 
Q 384 513 384 1019 
Q 384 1609 779 1909 
Q 1175 2209 1959 2209 
L 2766 2209 
L 2766 2266 
Q 2766 2663 2505 2880 
Q 2244 3097 1772 3097 
Q 1472 3097 1187 3025 
Q 903 2953 641 2809 
L 641 3341 
Q 956 3463 1253 3523 
Q 1550 3584 1831 3584 
Q 2591 3584 2966 3190 
Q 3341 2797 3341 1997 
z
" transform="scale(0.015625)"/>
      <path id="DejaVuSans-64" d="M 2906 2969 
L 2906 4863 
L 3481 4863 
L 3481 0 
L 2906 0 
L 2906 525 
Q 2725 213 2448 61 
Q 2172 -91 1784 -91 
Q 1150 -91 751 415 
Q 353 922 353 1747 
Q 353 2572 751 3078 
Q 1150 3584 1784 3584 
Q 2172 3584 2448 3432 
Q 2725 3281 2906 2969 
z
M 947 1747 
Q 947 1113 1208 752 
Q 1469 391 1925 391 
Q 2381 391 2643 752 
Q 2906 1113 2906 1747 
Q 2906 2381 2643 2742 
Q 2381 3103 1925 3103 
Q 1469 3103 1208 2742 
Q 947 2381 947 1747 
z
" transform="scale(0.015625)"/>
      <path id="DejaVuSans-74" d="M 1172 4494 
L 1172 3500 
L 2356 3500 
L 2356 3053 
L 1172 3053 
L 1172 1153 
Q 1172 725 1289 603 
Q 1406 481 1766 481 
L 2356 481 
L 2356 0 
L 1766 0 
Q 1100 0 847 248 
Q 594 497 594 1153 
L 594 3053 
L 172 3053 
L 172 3500 
L 594 3500 
L 594 4494 
L 1172 4494 
z
" transform="scale(0.015625)"/>
     </defs>
     <use xlink:href="#DejaVuSans-51"/>
     <use xlink:href="#DejaVuSans-75" transform="translate(78.710938 0)"/>
     <use xlink:href="#DejaVuSans-61" transform="translate(142.089844 0)"/>
     <use xlink:href="#DejaVuSans-64" transform="translate(203.369141 0)"/>
     <use xlink:href="#DejaVuSans-72" transform="translate(266.845703 0)"/>
     <use xlink:href="#DejaVuSans-6f" transform="translate(305.708984 0)"/>
     <use xlink:href="#DejaVuSans-74" transform="translate(366.890625 0)"/>
     <use xlink:href="#DejaVuSans-6f" transform="translate(406.099609 0)"/>
     <use xlink:href="#DejaVuSans-72" transform="translate(467.28125 0)"/>
    </g>
   </g>
   <g id="line2d_14">
    <path d="M 263.490576 246.251885 
L 263.392137 245.753362 
L 263.380774 245.754717 
L 263.233246 245.812072 
L 272.088538 207.884208 
L 271.979031 207.702509 
L 272.070756 208.030682 
L 272.114474 207.904004 
L 272.346817 249.523925 
L 272.476791 249.817361 
L 272.516187 249.734039 
L 272.52326 249.57063 
L 269.086452 216.02982 
L 269.084226 216.036444 
L 275.764697 232.66348 
L 275.75294 232.860609 
L 275.676999 232.829711 
L 275.499836 232.815072 
L 275.488767 232.842281 
L 275.441381 233.338342 
L 275.328305 234.170591 
L 275.873058 247.035419 
L 275.855865 246.976145 
L 271.601552 233.624816 
L 271.601552 233.624816 
" clip-path="url(#pbea094c948)" style="fill: none; stroke: #d62728; stroke-opacity: 0.92; stroke-width: 3.2; stroke-linecap: square"/>
   </g>
   <g id="line2d_15">
    <path d="M 269.455941 211.258377 
L 269.558244 210.825608 
L 269.566333 210.852893 
L 269.497694 211.442475 
L 269.465504 211.607126 
L 278.537649 206.34778 
L 278.557428 206.44514 
L 278.568268 206.686754 
L 278.572525 206.676141 
L 259.916065 231.440688 
L 259.895369 231.311649 
L 259.906798 230.973879 
L 259.959914 231.005567 
L 260.093949 231.351052 
L 260.089463 231.355944 
L 260.040473 231.227611 
L 259.964106 230.774265 
L 279.260908 231.855618 
L 279.368581 231.433321 
L 268.508493 226.779344 
L 268.727213 226.991321 
L 268.891376 227.502585 
L 268.621177 226.799648 
L 275.095471 250.235391 
L 275.149635 250.064507 
L 275.206059 249.406543 
L 275.262384 248.75095 
L 275.29202 248.553482 
L 275.083943 241.962137 
L 275.187785 241.681045 
L 275.185198 241.748825 
L 261.938447 241.707646 
L 261.973781 241.81254 
L 261.96995 242.092842 
L 261.952037 242.096493 
L 261.785058 241.990589 
L 261.760104 241.960557 
L 261.760104 241.960557 
" clip-path="url(#pbea094c948)" style="fill: none; stroke: #d62728; stroke-opacity: 0.92; stroke-width: 3.2; stroke-linecap: square"/>
   </g>
   <g id="line2d_16">
    <path d="M 72.044844 404.781309 
L 635.077613 404.781309 
" clip-path="url(#pbea094c948)" style="fill: none; stroke-dasharray: 5.92,2.56; stroke-dashoffset: 0; stroke: #ffffff; stroke-opacity: 0.75; stroke-width: 1.6"/>
   </g>
   <g id="line2d_17">
    <path d="M 72.044844 50.565507 
L 635.077613 50.565507 
" clip-path="url(#pbea094c948)" style="fill: none; stroke-dasharray: 5.92,2.56; stroke-dashoffset: 0; stroke: #ffffff; stroke-opacity: 0.75; stroke-width: 1.6"/>
   </g>
   <g id="legend_1">
    <g id="patch_7">
     <path d="M 450.577613 92.43125 
L 624.577613 92.43125 
Q 627.577613 92.43125 627.577613 89.43125 
L 627.577613 46.896875 
Q 627.577613 43.896875 624.577613 43.896875 
L 450.577613 43.896875 
Q 447.577613 43.896875 447.577613 46.896875 
L 447.577613 89.43125 
Q 447.577613 92.43125 450.577613 92.43125 
z
" style="fill: #ffffff; opacity: 0.92; stroke: #cccccc; stroke-linejoin: miter"/>
    </g>
    <g id="line2d_18">
     <path d="M 453.577613 56.044531 
L 468.577613 56.044531 
L 483.577613 56.044531 
" style="fill: none; stroke: #d62728; stroke-opacity: 0.92; stroke-width: 3.2; stroke-linecap: square"/>
    </g>
    <g id="text_8">
     <!-- $x(t)$ -->
     <g transform="translate(495.577613 61.294531) scale(0.15 -0.15)">
      <defs>
       <path id="DejaVuSans-Oblique-78" d="M 3841 3500 
L 2234 1784 
L 3219 0 
L 2559 0 
L 1819 1388 
L 531 0 
L -166 0 
L 1556 1844 
L 641 3500 
L 1300 3500 
L 1972 2234 
L 3144 3500 
L 3841 3500 
z
" transform="scale(0.015625)"/>
       <path id="DejaVuSans-28" d="M 1984 4856 
Q 1566 4138 1362 3434 
Q 1159 2731 1159 2009 
Q 1159 1288 1364 580 
Q 1569 -128 1984 -844 
L 1484 -844 
Q 1016 -109 783 600 
Q 550 1309 550 2009 
Q 550 2706 781 3412 
Q 1013 4119 1484 4856 
L 1984 4856 
z
" transform="scale(0.015625)"/>
       <path id="DejaVuSans-Oblique-74" d="M 2706 3500 
L 2619 3053 
L 1472 3053 
L 1100 1153 
Q 1081 1047 1072 975 
Q 1063 903 1063 863 
Q 1063 663 1183 572 
Q 1303 481 1569 481 
L 2150 481 
L 2053 0 
L 1503 0 
Q 991 0 739 200 
Q 488 400 488 806 
Q 488 878 497 964 
Q 506 1050 525 1153 
L 897 3053 
L 409 3053 
L 500 3500 
L 978 3500 
L 1172 4494 
L 1747 4494 
L 1556 3500 
L 2706 3500 
z
" transform="scale(0.015625)"/>
       <path id="DejaVuSans-29" d="M 513 4856 
L 1013 4856 
Q 1481 4119 1714 3412 
Q 1947 2706 1947 2009 
Q 1947 1309 1714 600 
Q 1481 -109 1013 -844 
L 513 -844 
Q 928 -128 1133 580 
Q 1338 1288 1338 2009 
Q 1338 2731 1133 3434 
Q 928 4138 513 4856 
z
" transform="scale(0.015625)"/>
      </defs>
      <use xlink:href="#DejaVuSans-Oblique-78" transform="translate(0 0.125)"/>
      <use xlink:href="#DejaVuSans-28" transform="translate(59.179688 0.125)"/>
      <use xlink:href="#DejaVuSans-Oblique-74" transform="translate(98.193359 0.125)"/>
      <use xlink:href="#DejaVuSans-29" transform="translate(137.402344 0.125)"/>
     </g>
    </g>
    <g id="line2d_19">
     <defs>
      <path id="m9c31c56570" d="M 0 5.5 
C 1.458617 5.5 2.857689 4.920485 3.889087 3.889087 
C 4.920485 2.857689 5.5 1.458617 5.5 0 
C 5.5 -1.458617 4.920485 -2.857689 3.889087 -3.889087 
C 2.857689 -4.920485 1.458617 -5.5 0 -5.5 
C -1.458617 -5.5 -2.857689 -4.920485 -3.889087 -3.889087 
C -4.920485 -2.857689 -5.5 -1.458617 -5.5 0 
C -5.5 1.458617 -4.920485 2.857689 -3.889087 3.889087 
C -2.857689 4.920485 -1.458617 5.5 0 5.5 
z
" style="stroke: #7f0f14; stroke-width: 2.4"/>
     </defs>
     <g>
      <use xlink:href="#m9c31c56570" x="468.577613" y="78.061719" style="fill: #ffffff; stroke: #7f0f14; stroke-width: 2.4"/>
     </g>
    </g>
    <g id="text_9">
     <!-- $x_0$ of shown runs -->
     <g transform="translate(495.577613 83.311719) scale(0.15 -0.15)">
      <defs>
       <path id="DejaVuSans-20" transform="scale(0.015625)"/>
       <path id="DejaVuSans-66" d="M 2375 4863 
L 2375 4384 
L 1825 4384 
Q 1516 4384 1395 4259 
Q 1275 4134 1275 3809 
L 1275 3500 
L 2222 3500 
L 2222 3053 
L 1275 3053 
L 1275 0 
L 697 0 
L 697 3053 
L 147 3053 
L 147 3500 
L 697 3500 
L 697 3744 
Q 697 4328 969 4595 
Q 1241 4863 1831 4863 
L 2375 4863 
z
" transform="scale(0.015625)"/>
       <path id="DejaVuSans-73" d="M 2834 3397 
L 2834 2853 
Q 2591 2978 2328 3040 
Q 2066 3103 1784 3103 
Q 1356 3103 1142 2972 
Q 928 2841 928 2578 
Q 928 2378 1081 2264 
Q 1234 2150 1697 2047 
L 1894 2003 
Q 2506 1872 2764 1633 
Q 3022 1394 3022 966 
Q 3022 478 2636 193 
Q 2250 -91 1575 -91 
Q 1294 -91 989 -36 
Q 684 19 347 128 
L 347 722 
Q 666 556 975 473 
Q 1284 391 1588 391 
Q 1994 391 2212 530 
Q 2431 669 2431 922 
Q 2431 1156 2273 1281 
Q 2116 1406 1581 1522 
L 1381 1569 
Q 847 1681 609 1914 
Q 372 2147 372 2553 
Q 372 3047 722 3315 
Q 1072 3584 1716 3584 
Q 2034 3584 2315 3537 
Q 2597 3491 2834 3397 
z
" transform="scale(0.015625)"/>
       <path id="DejaVuSans-68" d="M 3513 2113 
L 3513 0 
L 2938 0 
L 2938 2094 
Q 2938 2591 2744 2837 
Q 2550 3084 2163 3084 
Q 1697 3084 1428 2787 
Q 1159 2491 1159 1978 
L 1159 0 
L 581 0 
L 581 4863 
L 1159 4863 
L 1159 2956 
Q 1366 3272 1645 3428 
Q 1925 3584 2291 3584 
Q 2894 3584 3203 3211 
Q 3513 2838 3513 2113 
z
" transform="scale(0.015625)"/>
       <path id="DejaVuSans-77" d="M 269 3500 
L 844 3500 
L 1563 769 
L 2278 3500 
L 2956 3500 
L 3675 769 
L 4391 3500 
L 4966 3500 
L 4050 0 
L 3372 0 
L 2619 2869 
L 1863 0 
L 1184 0 
L 269 3500 
z
" transform="scale(0.015625)"/>
       <path id="DejaVuSans-6e" d="M 3513 2113 
L 3513 0 
L 2938 0 
L 2938 2094 
Q 2938 2591 2744 2837 
Q 2550 3084 2163 3084 
Q 1697 3084 1428 2787 
Q 1159 2491 1159 1978 
L 1159 0 
L 581 0 
L 581 3500 
L 1159 3500 
L 1159 2956 
Q 1366 3272 1645 3428 
Q 1925 3584 2291 3584 
Q 2894 3584 3203 3211 
Q 3513 2838 3513 2113 
z
" transform="scale(0.015625)"/>
      </defs>
      <use xlink:href="#DejaVuSans-Oblique-78" transform="translate(0 0.015625)"/>
      <use xlink:href="#DejaVuSans-30" transform="translate(59.179688 -16.390625) scale(0.7)"/>
      <use xlink:href="#DejaVuSans-20" transform="translate(106.450195 0.015625)"/>
      <use xlink:href="#DejaVuSans-6f" transform="translate(138.237305 0.015625)"/>
      <use xlink:href="#DejaVuSans-66" transform="translate(199.418945 0.015625)"/>
      <use xlink:href="#DejaVuSans-20" transform="translate(234.624023 0.015625)"/>
      <use xlink:href="#DejaVuSans-73" transform="translate(266.411133 0.015625)"/>
      <use xlink:href="#DejaVuSans-68" transform="translate(318.510742 0.015625)"/>
      <use xlink:href="#DejaVuSans-6f" transform="translate(381.889648 0.015625)"/>
      <use xlink:href="#DejaVuSans-77" transform="translate(443.071289 0.015625)"/>
      <use xlink:href="#DejaVuSans-6e" transform="translate(524.858398 0.015625)"/>
      <use xlink:href="#DejaVuSans-20" transform="translate(588.237305 0.015625)"/>
      <use xlink:href="#DejaVuSans-72" transform="translate(620.024414 0.015625)"/>
      <use xlink:href="#DejaVuSans-75" transform="translate(661.137695 0.015625)"/>
      <use xlink:href="#DejaVuSans-6e" transform="translate(724.516602 0.015625)"/>
      <use xlink:href="#DejaVuSans-73" transform="translate(787.895508 0.015625)"/>
     </g>
    </g>
   </g>
   <g id="Quiver_1">
    <path d="M 262.175488 246.390558 
L 261.443142 245.094879 
L 259.368184 247.977306 
L 258.372919 237.142412 
L 267.142256 243.583235 
L 263.602607 243.874304 
L 264.334952 245.169983 
L 262.175488 246.390558 
" clip-path="url(#pbea094c948)" style="fill: #7f0f14"/>
    <path d="M 273.116804 207.568797 
L 273.507807 208.926343 
L 276.058155 206.721622 
L 274.592206 216.944944 
L 267.912875 209.067644 
L 271.24523 209.578016 
L 270.854226 208.22047 
L 273.116804 207.568797 
" clip-path="url(#pbea094c948)" style="fill: #7f0f14"/>
    <path d="M 273.444944 248.937119 
L 274.478474 250.141736 
L 276.054948 246.697805 
L 279.331293 257.829174 
L 268.827245 252.898982 
L 272.470779 251.864285 
L 271.437249 250.659668 
L 273.444944 248.937119 
" clip-path="url(#pbea094c948)" style="fill: #7f0f14"/>
    <path d="M 267.920896 216.298499 
L 267.941211 214.917121 
L 264.927911 216.254482 
L 269.20748 207.106244 
L 273.216177 216.376375 
L 270.243507 214.95098 
L 270.223192 216.332358 
L 267.920896 216.298499 
" clip-path="url(#pbea094c948)" style="fill: #7f0f14"/>
    <path d="M 276.925801 232.73957 
L 276.963429 234.120792 
L 279.918449 232.658044 
L 276.025632 241.979075 
L 271.631116 232.883808 
L 274.661392 234.183505 
L 274.623764 232.802282 
L 276.925801 232.73957 
" clip-path="url(#pbea094c948)" style="fill: #7f0f14"/>
    <path d="M 276.577863 233.388649 
L 275.964809 234.710575 
L 279.442037 234.716931 
L 271.389234 241.690615 
L 271.510478 231.03861 
L 273.761598 233.688819 
L 274.374652 232.366893 
L 276.577863 233.388649 
" clip-path="url(#pbea094c948)" style="fill: #7f0f14"/>
    <path d="M 276.49779 232.352164 
L 277.235189 233.646615 
L 279.302433 230.754464 
L 280.335078 241.596337 
L 271.535727 235.178862 
L 275.077771 234.875614 
L 274.340371 233.581163 
L 276.49779 232.352164 
" clip-path="url(#pbea094c948)" style="fill: #7f0f14"/>
    <path d="M 276.594289 233.286771 
L 276.579264 234.668178 
L 279.587337 233.319326 
L 275.342949 242.483628 
L 271.298897 233.229174 
L 274.27692 234.643136 
L 274.291945 233.261729 
L 276.594289 233.286771 
" clip-path="url(#pbea094c948)" style="fill: #7f0f14"/>
   </g>
   <g id="Quiver_2">
    <path d="M 279.653499 205.915102 
L 280.172712 207.254122 
L 282.55471 204.79014 
L 281.999071 215.274582 
L 274.520588 207.90542 
L 277.941012 208.119478 
L 277.421798 206.780458 
L 279.653499 205.915102 
" clip-path="url(#pbea094c948)" style="fill: #7f0f14"/>
    <path d="M 259.705089 229.24162 
L 261.783799 228.99957 
L 259.180648 224.737748 
L 273.764865 229.360212 
L 260.632948 237.210009 
L 262.187216 232.464087 
L 260.108506 232.706137 
L 259.705089 229.24162 
" clip-path="url(#pbea094c948)" style="fill: #7f0f14"/>
    <path d="M 260.069294 229.022148 
L 262.171834 229.148374 
L 260.342783 224.466644 
L 273.981043 231.615771 
L 259.585428 237.081887 
L 261.961458 232.652608 
L 259.858917 232.526383 
L 260.069294 229.022148 
" clip-path="url(#pbea094c948)" style="fill: #7f0f14"/>
    <path d="M 269.759574 226.297236 
L 270.441501 227.604641 
L 272.592285 224.819728 
L 273.216249 235.581544 
L 264.747853 228.911289 
L 268.262492 228.741186 
L 267.580565 227.433781 
L 269.759574 226.297236 
" clip-path="url(#pbea094c948)" style="fill: #7f0f14"/>
    <path d="M 269.754022 226.486692 
L 270.12957 227.846105 
L 272.699417 225.673005 
L 271.124829 235.862404 
L 264.542937 227.926291 
L 267.863881 228.472018 
L 267.488333 227.112605 
L 269.754022 226.486692 
" clip-path="url(#pbea094c948)" style="fill: #7f0f14"/>
    <path d="M 274.055358 248.849542 
L 274.27359 247.4755 
L 271.078265 248.376706 
L 276.655274 239.871118 
L 279.322521 249.686099 
L 276.563661 247.83922 
L 276.345429 249.213263 
L 274.055358 248.849542 
" clip-path="url(#pbea094c948)" style="fill: #7f0f14"/>
    <path d="M 274.144391 240.954345 
L 275.570246 239.935499 
L 271.936892 237.864993 
L 284.499129 235.350251 
L 278.049968 246.420122 
L 277.268323 242.311924 
L 275.842468 243.33077 
L 274.144391 240.954345 
" clip-path="url(#pbea094c948)" style="fill: #7f0f14"/>
    <path d="M 263.158866 241.793401 
L 263.350646 243.169132 
L 266.139616 241.377876 
L 263.290961 251.124758 
L 257.88523 242.52856 
L 261.057761 243.488766 
L 260.865981 242.113035 
L 263.158866 241.793401 
" clip-path="url(#pbea094c948)" style="fill: #7f0f14"/>
   </g>
   <g id="line2d_20">
    <path d="M 263.490576 418.949942 
L 263.490576 36.396875 
" clip-path="url(#pbea094c948)" style="fill: none; stroke-dasharray: 1.9,3.135; stroke-dashoffset: 0; stroke: #7f0f14; stroke-opacity: 0.85; stroke-width: 1.9"/>
   </g>
   <g id="line2d_21">
    <path d="M 269.455941 418.949942 
L 269.455941 36.396875 
" clip-path="url(#pbea094c948)" style="fill: none; stroke-dasharray: 1.9,3.135; stroke-dashoffset: 0; stroke: #7f0f14; stroke-opacity: 0.85; stroke-width: 1.9"/>
   </g>
   <g id="line2d_22">
    <g clip-path="url(#pbea094c948)">
     <use xlink:href="#m9c31c56570" x="263.490576" y="246.251885" style="fill: #ffffff; stroke: #7f0f14; stroke-width: 2.4"/>
    </g>
   </g>
   <g id="line2d_23">
    <g clip-path="url(#pbea094c948)">
     <use xlink:href="#m9c31c56570" x="269.455941" y="211.258377" style="fill: #ffffff; stroke: #7f0f14; stroke-width: 2.4"/>
    </g>
   </g>
   <g id="text_10">
    <g id="patch_8">
     <path d="M 233.501228 408.935054 
L 473.621228 408.935054 
Q 480.821228 408.935054 480.821228 401.735054 
L 480.821228 381.575054 
Q 480.821228 374.375054 473.621228 374.375054 
L 233.501228 374.375054 
Q 226.301228 374.375054 226.301228 381.575054 
L 226.301228 401.735054 
Q 226.301228 408.935054 233.501228 408.935054 
z
" style="fill: #ffffff; opacity: 0.92; stroke: #8c8c8c; stroke-linejoin: miter"/>
    </g>
    <!-- $\lambda^*(x) = 3.126$  everywhere -->
    <g style="fill: #1a1a1a" transform="translate(233.501228 397.955054) scale(0.18 -0.18)">
     <defs>
      <path id="DejaVuSans-Oblique-3bb" d="M 2350 4316 
L 3125 0 
L 2516 0 
L 2038 2588 
L 328 0 
L -281 0 
L 1903 3356 
L 1794 3975 
Q 1725 4369 1391 4369 
L 1091 4369 
L 1184 4863 
L 1550 4856 
Q 2253 4847 2350 4316 
z
" transform="scale(0.015625)"/>
      <path id="DejaVuSans-2a" d="M 3009 3897 
L 1888 3291 
L 3009 2681 
L 2828 2375 
L 1778 3009 
L 1778 1831 
L 1422 1831 
L 1422 3009 
L 372 2375 
L 191 2681 
L 1313 3291 
L 191 3897 
L 372 4206 
L 1422 3572 
L 1422 4750 
L 1778 4750 
L 1778 3572 
L 2828 4206 
L 3009 3897 
z
" transform="scale(0.015625)"/>
      <path id="DejaVuSans-3d" d="M 678 2906 
L 4684 2906 
L 4684 2381 
L 678 2381 
L 678 2906 
z
M 678 1631 
L 4684 1631 
L 4684 1100 
L 678 1100 
L 678 1631 
z
" transform="scale(0.015625)"/>
      <path id="DejaVuSans-33" d="M 2597 2516 
Q 3050 2419 3304 2112 
Q 3559 1806 3559 1356 
Q 3559 666 3084 287 
Q 2609 -91 1734 -91 
Q 1441 -91 1130 -33 
Q 819 25 488 141 
L 488 750 
Q 750 597 1062 519 
Q 1375 441 1716 441 
Q 2309 441 2620 675 
Q 2931 909 2931 1356 
Q 2931 1769 2642 2001 
Q 2353 2234 1838 2234 
L 1294 2234 
L 1294 2753 
L 1863 2753 
Q 2328 2753 2575 2939 
Q 2822 3125 2822 3475 
Q 2822 3834 2567 4026 
Q 2313 4219 1838 4219 
Q 1578 4219 1281 4162 
Q 984 4106 628 3988 
L 628 4550 
Q 988 4650 1302 4700 
Q 1616 4750 1894 4750 
Q 2613 4750 3031 4423 
Q 3450 4097 3450 3541 
Q 3450 3153 3228 2886 
Q 3006 2619 2597 2516 
z
" transform="scale(0.015625)"/>
      <path id="DejaVuSans-32" d="M 1228 531 
L 3431 531 
L 3431 0 
L 469 0 
L 469 531 
Q 828 903 1448 1529 
Q 2069 2156 2228 2338 
Q 2531 2678 2651 2914 
Q 2772 3150 2772 3378 
Q 2772 3750 2511 3984 
Q 2250 4219 1831 4219 
Q 1534 4219 1204 4116 
Q 875 4013 500 3803 
L 500 4441 
Q 881 4594 1212 4672 
Q 1544 4750 1819 4750 
Q 2544 4750 2975 4387 
Q 3406 4025 3406 3419 
Q 3406 3131 3298 2873 
Q 3191 2616 2906 2266 
Q 2828 2175 2409 1742 
Q 1991 1309 1228 531 
z
" transform="scale(0.015625)"/>
      <path id="DejaVuSans-36" d="M 2113 2584 
Q 1688 2584 1439 2293 
Q 1191 2003 1191 1497 
Q 1191 994 1439 701 
Q 1688 409 2113 409 
Q 2538 409 2786 701 
Q 3034 994 3034 1497 
Q 3034 2003 2786 2293 
Q 2538 2584 2113 2584 
z
M 3366 4563 
L 3366 3988 
Q 3128 4100 2886 4159 
Q 2644 4219 2406 4219 
Q 1781 4219 1451 3797 
Q 1122 3375 1075 2522 
Q 1259 2794 1537 2939 
Q 1816 3084 2150 3084 
Q 2853 3084 3261 2657 
Q 3669 2231 3669 1497 
Q 3669 778 3244 343 
Q 2819 -91 2113 -91 
Q 1303 -91 875 529 
Q 447 1150 447 2328 
Q 447 3434 972 4092 
Q 1497 4750 2381 4750 
Q 2619 4750 2861 4703 
Q 3103 4656 3366 4563 
z
" transform="scale(0.015625)"/>
      <path id="DejaVuSans-65" d="M 3597 1894 
L 3597 1613 
L 953 1613 
Q 991 1019 1311 708 
Q 1631 397 2203 397 
Q 2534 397 2845 478 
Q 3156 559 3463 722 
L 3463 178 
Q 3153 47 2828 -22 
Q 2503 -91 2169 -91 
Q 1331 -91 842 396 
Q 353 884 353 1716 
Q 353 2575 817 3079 
Q 1281 3584 2069 3584 
Q 2775 3584 3186 3129 
Q 3597 2675 3597 1894 
z
M 3022 2063 
Q 3016 2534 2758 2815 
Q 2500 3097 2075 3097 
Q 1594 3097 1305 2825 
Q 1016 2553 972 2059 
L 3022 2063 
z
" transform="scale(0.015625)"/>
      <path id="DejaVuSans-76" d="M 191 3500 
L 800 3500 
L 1894 563 
L 2988 3500 
L 3597 3500 
L 2284 0 
L 1503 0 
L 191 3500 
z
" transform="scale(0.015625)"/>
      <path id="DejaVuSans-79" d="M 2059 -325 
Q 1816 -950 1584 -1140 
Q 1353 -1331 966 -1331 
L 506 -1331 
L 506 -850 
L 844 -850 
Q 1081 -850 1212 -737 
Q 1344 -625 1503 -206 
L 1606 56 
L 191 3500 
L 800 3500 
L 1894 763 
L 2988 3500 
L 3597 3500 
L 2059 -325 
z
" transform="scale(0.015625)"/>
     </defs>
     <use xlink:href="#DejaVuSans-Oblique-3bb" transform="translate(0 0.765625)"/>
     <use xlink:href="#DejaVuSans-2a" transform="translate(80.265091 39.046875) scale(0.7)"/>
     <use xlink:href="#DejaVuSans-28" transform="translate(131.637161 0.765625)"/>
     <use xlink:href="#DejaVuSans-Oblique-78" transform="translate(170.650833 0.765625)"/>
     <use xlink:href="#DejaVuSans-29" transform="translate(229.830521 0.765625)"/>
     <use xlink:href="#DejaVuSans-3d" transform="translate(288.326615 0.765625)"/>
     <use xlink:href="#DejaVuSans-33" transform="translate(391.598099 0.765625)"/>
     <use xlink:href="#DejaVuSans-2e" transform="translate(455.221146 0.765625)"/>
     <use xlink:href="#DejaVuSans-31" transform="translate(487.008255 0.765625)"/>
     <use xlink:href="#DejaVuSans-32" transform="translate(550.631302 0.765625)"/>
     <use xlink:href="#DejaVuSans-36" transform="translate(614.254349 0.765625)"/>
     <use xlink:href="#DejaVuSans-20" transform="translate(677.877396 0.765625)"/>
     <use xlink:href="#DejaVuSans-20" transform="translate(709.664505 0.765625)"/>
     <use xlink:href="#DejaVuSans-65" transform="translate(741.451615 0.765625)"/>
     <use xlink:href="#DejaVuSans-76" transform="translate(802.975052 0.765625)"/>
     <use xlink:href="#DejaVuSans-65" transform="translate(862.15474 0.765625)"/>
     <use xlink:href="#DejaVuSans-72" transform="translate(923.678177 0.765625)"/>
     <use xlink:href="#DejaVuSans-79" transform="translate(964.791458 0.765625)"/>
     <use xlink:href="#DejaVuSans-77" transform="translate(1023.971146 0.765625)"/>
     <use xlink:href="#DejaVuSans-68" transform="translate(1105.758255 0.765625)"/>
     <use xlink:href="#DejaVuSans-65" transform="translate(1169.137161 0.765625)"/>
     <use xlink:href="#DejaVuSans-72" transform="translate(1230.660599 0.765625)"/>
     <use xlink:href="#DejaVuSans-65" transform="translate(1271.77388 0.765625)"/>
    </g>
   </g>
  </g>
  <g id="axes_2">
   <g id="patch_9">
    <path d="M 72.044844 557.532875 
L 635.077613 557.532875 
L 635.077613 434.12866 
L 72.044844 434.12866 
z
" style="fill: #ffffff"/>
   </g>
   <g id="matplotlib.axis_3">
    <g id="xtick_9">
     <g id="line2d_24">
      <g>
       <use xlink:href="#m223e53ce7d" x="138.51858" y="557.532875" style="stroke: #000000; stroke-width: 0.8"/>
      </g>
     </g>
     <g id="text_11">
      <!-- 6 -->
      <g transform="translate(133.746705 575.930531) scale(0.15 -0.15)">
       <use xlink:href="#DejaVuSans-36"/>
      </g>
     </g>
    </g>
    <g id="xtick_10">
     <g id="line2d_25">
      <g>
       <use xlink:href="#m223e53ce7d" x="207.194869" y="557.532875" style="stroke: #000000; stroke-width: 0.8"/>
      </g>
     </g>
     <g id="text_12">
      <!-- 8 -->
      <g transform="translate(202.422994 575.930531) scale(0.15 -0.15)">
       <defs>
        <path id="DejaVuSans-38" d="M 2034 2216 
Q 1584 2216 1326 1975 
Q 1069 1734 1069 1313 
Q 1069 891 1326 650 
Q 1584 409 2034 409 
Q 2484 409 2743 651 
Q 3003 894 3003 1313 
Q 3003 1734 2745 1975 
Q 2488 2216 2034 2216 
z
M 1403 2484 
Q 997 2584 770 2862 
Q 544 3141 544 3541 
Q 544 4100 942 4425 
Q 1341 4750 2034 4750 
Q 2731 4750 3128 4425 
Q 3525 4100 3525 3541 
Q 3525 3141 3298 2862 
Q 3072 2584 2669 2484 
Q 3125 2378 3379 2068 
Q 3634 1759 3634 1313 
Q 3634 634 3220 271 
Q 2806 -91 2034 -91 
Q 1263 -91 848 271 
Q 434 634 434 1313 
Q 434 1759 690 2068 
Q 947 2378 1403 2484 
z
M 1172 3481 
Q 1172 3119 1398 2916 
Q 1625 2713 2034 2713 
Q 2441 2713 2670 2916 
Q 2900 3119 2900 3481 
Q 2900 3844 2670 4047 
Q 2441 4250 2034 4250 
Q 1625 4250 1398 4047 
Q 1172 3844 1172 3481 
z
" transform="scale(0.015625)"/>
       </defs>
       <use xlink:href="#DejaVuSans-38"/>
      </g>
     </g>
    </g>
    <g id="xtick_11">
     <g id="line2d_26">
      <g>
       <use xlink:href="#m223e53ce7d" x="275.871158" y="557.532875" style="stroke: #000000; stroke-width: 0.8"/>
      </g>
     </g>
     <g id="text_13">
      <!-- 10 -->
      <g transform="translate(266.327408 575.930531) scale(0.15 -0.15)">
       <use xlink:href="#DejaVuSans-31"/>
       <use xlink:href="#DejaVuSans-30" transform="translate(63.623047 0)"/>
      </g>
     </g>
    </g>
    <g id="xtick_12">
     <g id="line2d_27">
      <g>
       <use xlink:href="#m223e53ce7d" x="344.547447" y="557.532875" style="stroke: #000000; stroke-width: 0.8"/>
      </g>
     </g>
     <g id="text_14">
      <!-- 12 -->
      <g transform="translate(335.003697 575.930531) scale(0.15 -0.15)">
       <use xlink:href="#DejaVuSans-31"/>
       <use xlink:href="#DejaVuSans-32" transform="translate(63.623047 0)"/>
      </g>
     </g>
    </g>
    <g id="xtick_13">
     <g id="line2d_28">
      <g>
       <use xlink:href="#m223e53ce7d" x="413.223737" y="557.532875" style="stroke: #000000; stroke-width: 0.8"/>
      </g>
     </g>
     <g id="text_15">
      <!-- 14 -->
      <g transform="translate(403.679987 575.930531) scale(0.15 -0.15)">
       <defs>
        <path id="DejaVuSans-34" d="M 2419 4116 
L 825 1625 
L 2419 1625 
L 2419 4116 
z
M 2253 4666 
L 3047 4666 
L 3047 1625 
L 3713 1625 
L 3713 1100 
L 3047 1100 
L 3047 0 
L 2419 0 
L 2419 1100 
L 313 1100 
L 313 1709 
L 2253 4666 
z
" transform="scale(0.015625)"/>
       </defs>
       <use xlink:href="#DejaVuSans-31"/>
       <use xlink:href="#DejaVuSans-34" transform="translate(63.623047 0)"/>
      </g>
     </g>
    </g>
    <g id="xtick_14">
     <g id="line2d_29">
      <g>
       <use xlink:href="#m223e53ce7d" x="481.900026" y="557.532875" style="stroke: #000000; stroke-width: 0.8"/>
      </g>
     </g>
     <g id="text_16">
      <!-- 16 -->
      <g transform="translate(472.356276 575.930531) scale(0.15 -0.15)">
       <use xlink:href="#DejaVuSans-31"/>
       <use xlink:href="#DejaVuSans-36" transform="translate(63.623047 0)"/>
      </g>
     </g>
    </g>
    <g id="xtick_15">
     <g id="line2d_30">
      <g>
       <use xlink:href="#m223e53ce7d" x="550.576315" y="557.532875" style="stroke: #000000; stroke-width: 0.8"/>
      </g>
     </g>
     <g id="text_17">
      <!-- 18 -->
      <g transform="translate(541.032565 575.930531) scale(0.15 -0.15)">
       <use xlink:href="#DejaVuSans-31"/>
       <use xlink:href="#DejaVuSans-38" transform="translate(63.623047 0)"/>
      </g>
     </g>
    </g>
    <g id="xtick_16">
     <g id="line2d_31">
      <g>
       <use xlink:href="#m223e53ce7d" x="619.252604" y="557.532875" style="stroke: #000000; stroke-width: 0.8"/>
      </g>
     </g>
     <g id="text_18">
      <!-- 20 -->
      <g transform="translate(609.708854 575.930531) scale(0.15 -0.15)">
       <use xlink:href="#DejaVuSans-32"/>
       <use xlink:href="#DejaVuSans-30" transform="translate(63.623047 0)"/>
      </g>
     </g>
    </g>
    <g id="text_19">
     <!-- thrust -->
     <g transform="translate(326.708885 596.72725) scale(0.18 -0.18)">
      <use xlink:href="#DejaVuSans-74"/>
      <use xlink:href="#DejaVuSans-68" transform="translate(39.208984 0)"/>
      <use xlink:href="#DejaVuSans-72" transform="translate(102.587891 0)"/>
      <use xlink:href="#DejaVuSans-75" transform="translate(143.701172 0)"/>
      <use xlink:href="#DejaVuSans-73" transform="translate(207.080078 0)"/>
      <use xlink:href="#DejaVuSans-74" transform="translate(259.179688 0)"/>
     </g>
    </g>
   </g>
   <g id="matplotlib.axis_4">
    <g id="ytick_6">
     <g id="line2d_32">
      <g>
       <use xlink:href="#m6e9295fc95" x="72.044844" y="557.532875" style="stroke: #000000; stroke-width: 0.8"/>
      </g>
     </g>
     <g id="text_20">
      <!-- 0.0 -->
      <g transform="translate(41.190156 563.231703) scale(0.15 -0.15)">
       <use xlink:href="#DejaVuSans-30"/>
       <use xlink:href="#DejaVuSans-2e" transform="translate(63.623047 0)"/>
       <use xlink:href="#DejaVuSans-30" transform="translate(95.410156 0)"/>
      </g>
     </g>
    </g>
    <g id="ytick_7">
     <g id="line2d_33">
      <g>
       <use xlink:href="#m6e9295fc95" x="72.044844" y="526.51946" style="stroke: #000000; stroke-width: 0.8"/>
      </g>
     </g>
     <g id="text_21">
      <!-- 0.2 -->
      <g transform="translate(41.190156 532.218288) scale(0.15 -0.15)">
       <use xlink:href="#DejaVuSans-30"/>
       <use xlink:href="#DejaVuSans-2e" transform="translate(63.623047 0)"/>
       <use xlink:href="#DejaVuSans-32" transform="translate(95.410156 0)"/>
      </g>
     </g>
    </g>
    <g id="ytick_8">
     <g id="line2d_34">
      <g>
       <use xlink:href="#m6e9295fc95" x="72.044844" y="495.506045" style="stroke: #000000; stroke-width: 0.8"/>
      </g>
     </g>
     <g id="text_22">
      <!-- 0.4 -->
      <g transform="translate(41.190156 501.204873) scale(0.15 -0.15)">
       <use xlink:href="#DejaVuSans-30"/>
       <use xlink:href="#DejaVuSans-2e" transform="translate(63.623047 0)"/>
       <use xlink:href="#DejaVuSans-34" transform="translate(95.410156 0)"/>
      </g>
     </g>
    </g>
    <g id="ytick_9">
     <g id="line2d_35">
      <g>
       <use xlink:href="#m6e9295fc95" x="72.044844" y="464.49263" style="stroke: #000000; stroke-width: 0.8"/>
      </g>
     </g>
     <g id="text_23">
      <!-- 0.6 -->
      <g transform="translate(41.190156 470.191458) scale(0.15 -0.15)">
       <use xlink:href="#DejaVuSans-30"/>
       <use xlink:href="#DejaVuSans-2e" transform="translate(63.623047 0)"/>
       <use xlink:href="#DejaVuSans-36" transform="translate(95.410156 0)"/>
      </g>
     </g>
    </g>
    <g id="text_24">
     <!-- $x_0$ density -->
     <g transform="translate(33.410156 541.280767) rotate(-90) scale(0.18 -0.18)">
      <defs>
       <path id="DejaVuSans-69" d="M 603 3500 
L 1178 3500 
L 1178 0 
L 603 0 
L 603 3500 
z
M 603 4863 
L 1178 4863 
L 1178 4134 
L 603 4134 
L 603 4863 
z
" transform="scale(0.015625)"/>
      </defs>
      <use xlink:href="#DejaVuSans-Oblique-78" transform="translate(0 0.015625)"/>
      <use xlink:href="#DejaVuSans-30" transform="translate(59.179688 -16.390625) scale(0.7)"/>
      <use xlink:href="#DejaVuSans-20" transform="translate(106.450195 0.015625)"/>
      <use xlink:href="#DejaVuSans-64" transform="translate(138.237305 0.015625)"/>
      <use xlink:href="#DejaVuSans-65" transform="translate(201.713867 0.015625)"/>
      <use xlink:href="#DejaVuSans-6e" transform="translate(263.237305 0.015625)"/>
      <use xlink:href="#DejaVuSans-73" transform="translate(326.616211 0.015625)"/>
      <use xlink:href="#DejaVuSans-69" transform="translate(378.71582 0.015625)"/>
      <use xlink:href="#DejaVuSans-74" transform="translate(406.499023 0.015625)"/>
      <use xlink:href="#DejaVuSans-79" transform="translate(445.708008 0.015625)"/>
     </g>
    </g>
   </g>
   <g id="FillBetweenPolyCollection_1">
    <defs>
     <path id="m1a6c8c5ebe" d="M 78.747615 -50.137813 
L 78.747615 -50.137813 
L 92.153157 -50.137813 
L 105.558699 -50.137813 
L 118.964241 -50.137813 
L 132.369783 -50.137813 
L 145.775325 -50.137813 
L 159.180868 -50.137813 
L 172.58641 -50.137813 
L 185.991952 -50.137813 
L 199.397494 -50.137813 
L 212.803036 -50.137813 
L 226.208578 -50.137813 
L 239.61412 -50.137813 
L 253.019662 -50.137813 
L 266.425205 -50.137813 
L 279.830747 -50.137813 
L 293.236289 -50.137813 
L 306.641831 -50.137813 
L 320.047373 -50.137813 
L 333.452915 -50.137813 
L 346.858457 -50.137813 
L 360.263999 -50.137813 
L 373.669542 -50.137813 
L 387.075084 -50.137813 
L 400.480626 -50.137813 
L 413.886168 -50.137813 
L 427.29171 -50.137813 
L 440.697252 -50.137813 
L 454.102794 -50.137813 
L 467.508336 -50.137813 
L 480.913879 -50.137813 
L 494.319421 -50.137813 
L 507.724963 -50.137813 
L 521.130505 -50.137813 
L 534.536047 -50.137813 
L 547.941589 -50.137813 
L 561.347131 -50.137813 
L 574.752674 -50.137813 
L 588.158216 -50.137813 
L 601.563758 -50.137813 
L 614.9693 -50.137813 
L 628.374842 -50.137813 
L 628.374842 -50.137813 
L 628.374842 -50.137813 
L 614.9693 -50.137813 
L 601.563758 -50.137813 
L 588.158216 -50.137813 
L 574.752674 -50.137813 
L 561.347131 -50.137813 
L 547.941589 -50.137813 
L 534.536047 -50.137813 
L 521.130505 -50.137813 
L 507.724963 -50.137813 
L 494.319421 -50.137813 
L 480.913879 -50.137813 
L 467.508336 -50.137813 
L 454.102794 -50.137813 
L 440.697252 -50.137813 
L 427.29171 -50.137813 
L 413.886168 -50.137813 
L 400.480626 -50.137813 
L 387.075084 -50.137813 
L 373.669542 -50.137813 
L 360.263999 -50.137813 
L 346.858457 -50.137813 
L 333.452915 -50.137813 
L 320.047373 -50.137813 
L 306.641831 -63.753034 
L 293.236289 -106.628843 
L 279.830747 -150.762461 
L 266.425205 -167.665636 
L 253.019662 -126.047635 
L 239.61412 -81.914017 
L 226.208578 -51.395621 
L 212.803036 -50.137813 
L 199.397494 -50.137813 
L 185.991952 -50.137813 
L 172.58641 -50.137813 
L 159.180868 -50.137813 
L 145.775325 -50.137813 
L 132.369783 -50.137813 
L 118.964241 -50.137813 
L 105.558699 -50.137813 
L 92.153157 -50.137813 
L 78.747615 -50.137813 
z
" style="stroke: #737373; stroke-opacity: 0.55"/>
    </defs>
    <g clip-path="url(#p66ef3c7a9a)">
     <use xlink:href="#m1a6c8c5ebe" x="0" y="607.670687" style="fill: #737373; fill-opacity: 0.55; stroke: #737373; stroke-opacity: 0.55"/>
    </g>
   </g>
   <g id="patch_10">
    <path d="M 72.044844 557.532875 
L 72.044844 434.12866 
" style="fill: none; stroke: #000000; stroke-width: 0.8; stroke-linejoin: miter; stroke-linecap: square"/>
   </g>
   <g id="patch_11">
    <path d="M 635.077613 557.532875 
L 635.077613 434.12866 
" style="fill: none; stroke: #000000; stroke-width: 0.8; stroke-linejoin: miter; stroke-linecap: square"/>
   </g>
   <g id="patch_12">
    <path d="M 72.044844 557.532875 
L 635.077613 557.532875 
" style="fill: none; stroke: #000000; stroke-width: 0.8; stroke-linejoin: miter; stroke-linecap: square"/>
   </g>
   <g id="patch_13">
    <path d="M 72.044844 434.12866 
L 635.077613 434.12866 
" style="fill: none; stroke: #000000; stroke-width: 0.8; stroke-linejoin: miter; stroke-linecap: square"/>
   </g>
   <g id="line2d_36">
    <path d="M 78.747615 557.532875 
L 92.153157 557.532875 
L 105.558699 557.532875 
L 118.964241 557.532875 
L 132.369783 557.532875 
L 145.775325 557.532875 
L 159.180868 557.532875 
L 172.58641 557.532875 
L 185.991952 557.532875 
L 199.397494 557.532875 
L 212.803036 557.532875 
L 226.208578 556.275067 
L 239.61412 525.75667 
L 253.019662 481.623053 
L 266.425205 440.005051 
L 279.830747 456.908227 
L 293.236289 501.041844 
L 306.641831 543.917654 
L 320.047373 557.532875 
L 333.452915 557.532875 
L 346.858457 557.532875 
L 360.263999 557.532875 
L 373.669542 557.532875 
L 387.075084 557.532875 
L 400.480626 557.532875 
L 413.886168 557.532875 
L 427.29171 557.532875 
L 440.697252 557.532875 
L 454.102794 557.532875 
L 467.508336 557.532875 
L 480.913879 557.532875 
L 494.319421 557.532875 
L 507.724963 557.532875 
L 521.130505 557.532875 
L 534.536047 557.532875 
L 547.941589 557.532875 
L 561.347131 557.532875 
L 574.752674 557.532875 
L 588.158216 557.532875 
L 601.563758 557.532875 
L 614.9693 557.532875 
L 628.374842 557.532875 
" clip-path="url(#p66ef3c7a9a)" style="fill: none; stroke: #262626; stroke-width: 2; stroke-linecap: square"/>
   </g>
   <g id="line2d_37">
    <path d="M 263.490576 557.532875 
L 263.490576 434.12866 
" clip-path="url(#p66ef3c7a9a)" style="fill: none; stroke-dasharray: 1.9,3.135; stroke-dashoffset: 0; stroke: #7f0f14; stroke-opacity: 0.85; stroke-width: 1.9"/>
   </g>
   <g id="line2d_38">
    <path d="M 269.455941 557.532875 
L 269.455941 434.12866 
" clip-path="url(#p66ef3c7a9a)" style="fill: none; stroke-dasharray: 1.9,3.135; stroke-dashoffset: 0; stroke: #7f0f14; stroke-opacity: 0.85; stroke-width: 1.9"/>
   </g>
   <g id="line2d_39">
    <defs>
     <path id="m20544b2a04" d="M 0 4.5 
C 1.193414 4.5 2.338109 4.025852 3.181981 3.181981 
C 4.025852 2.338109 4.5 1.193414 4.5 0 
C 4.5 -1.193414 4.025852 -2.338109 3.181981 -3.181981 
C 2.338109 -4.025852 1.193414 -4.5 0 -4.5 
C -1.193414 -4.5 -2.338109 -4.025852 -3.181981 -3.181981 
C -4.025852 -2.338109 -4.5 -1.193414 -4.5 0 
C -4.5 1.193414 -4.025852 2.338109 -3.181981 3.181981 
C -2.338109 4.025852 -1.193414 4.5 0 4.5 
z
" style="stroke: #7f0f14; stroke-width: 2.2"/>
    </defs>
    <g>
     <use xlink:href="#m20544b2a04" x="263.490576" y="557.532875" style="fill: #ffffff; stroke: #7f0f14; stroke-width: 2.2"/>
    </g>
   </g>
   <g id="line2d_40">
    <g>
     <use xlink:href="#m20544b2a04" x="269.455941" y="557.532875" style="fill: #ffffff; stroke: #7f0f14; stroke-width: 2.2"/>
    </g>
   </g>
  </g>
  <g id="axes_3"/>
 </g>
 <defs>
  <clipPath id="pbea094c948">
   <rect x="72.044844" y="36.396875" width="563.032769" height="382.553067"/>
  </clipPath>
  <clipPath id="p66ef3c7a9a">
   <rect x="72.044844" y="434.12866" width="563.032769" height="123.404215"/>
  </clipPath>
 </defs>
</svg>
